<?xml version="1.0" encoding="UTF-8" standalone="no"?>
<!-- Generator: Adobe Illustrator 27.2.0, SVG Export Plug-In . SVG Version: 6.00 Build 0)  -->

<svg
   version="1.1"
   id="Слой_1"
   x="0px"
   y="0px"
   viewBox="0 0 512 512"
   style="enable-background:new 0 0 512 512;"
   xml:space="preserve"
   sodipodi:docname="bwpdai.svg"
   inkscape:version="1.3 (0e150ed6c4, 2023-07-21)"
   xmlns:inkscape="http://www.inkscape.org/namespaces/inkscape"
   xmlns:sodipodi="http://sodipodi.sourceforge.net/DTD/sodipodi-0.dtd"
   xmlns="http://www.w3.org/2000/svg"
   xmlns:svg="http://www.w3.org/2000/svg"><defs
   id="defs170" /><sodipodi:namedview
   id="namedview170"
   pagecolor="#ffffff"
   bordercolor="#000000"
   borderopacity="0.25"
   inkscape:showpageshadow="2"
   inkscape:pageopacity="0.0"
   inkscape:pagecheckerboard="0"
   inkscape:deskcolor="#d1d1d1"
   inkscape:zoom="2.2910156"
   inkscape:cx="56.306905"
   inkscape:cy="260.80136"
   inkscape:window-width="2560"
   inkscape:window-height="1369"
   inkscape:window-x="-8"
   inkscape:window-y="-8"
   inkscape:window-maximized="1"
   inkscape:current-layer="g170" />&#10;<style
   type="text/css"
   id="style1">&#10;	.st0{fill:#FFFFFF;}&#10;	.st1{fill:#01B8E0;}&#10;	.st2{fill:#DE15B5;}&#10;	.st3{fill:#950184;}&#10;	.st4{fill:#035995;}&#10;	.st5{fill:#7F0175;}&#10;	.st6{fill:#6C0169;}&#10;	.st7{fill:#0182AE;}&#10;	.st8{fill:#01A4CF;}&#10;	.st9{fill:#019AC5;}&#10;	.st10{fill:#03B0D9;}&#10;	.st11{fill:#D70EAF;}&#10;	.st12{fill:#C413A8;}&#10;	.st13{fill:#E222BF;}&#10;	.st14{fill:#D21AB3;}&#10;	.st15{fill:#0191BB;}&#10;	.st16{fill:#01A2CB;}&#10;	.st17{fill:#DE22BC;}&#10;	.st18{fill:#AC0C97;}&#10;	.st19{fill:#800273;}&#10;	.st20{fill:#C311A6;}&#10;	.st21{fill:#05B7E1;}&#10;	.st22{fill:#017EA7;}&#10;	.st23{fill:#D811B0;}&#10;	.st24{fill:#0B85B0;}&#10;	.st25{fill:#BE0CA1;}&#10;	.st26{fill:#F331CA;}&#10;	.st27{fill:#0398BE;}&#10;	.st28{fill:#9A128E;}&#10;	.st29{fill:#B10A97;}&#10;	.st30{fill:#DA2ABA;}&#10;	.st31{fill:#05B1DC;}&#10;	.st32{fill:#C119A4;}&#10;	.st33{fill:#D418B3;}&#10;	.st34{fill:#AA1893;}&#10;	.st35{fill:#B50B9A;}&#10;	.st36{fill:#0880AD;}&#10;	.st37{fill:#D119B1;}&#10;	.st38{fill:#A1078B;}&#10;	.st39{fill:#AD0793;}&#10;	.st40{fill:#BA3DA3;}&#10;	.st41{fill:#CE17AF;}&#10;	.st42{fill:#A0158D;}&#10;	.st43{fill:#0897C1;}&#10;	.st44{fill:#E92EC5;}&#10;	.st45{fill:#1089B0;}&#10;	.st46{fill:#1173AB;}&#10;	.st47{fill:#097BAF;}&#10;	.st48{fill:#B1369E;}&#10;	.st49{fill:#0F72A8;}&#10;	.st50{fill:#9B0C8A;}&#10;	.st51{fill:#B0239D;}&#10;	.st52{fill:#9A1386;}&#10;	.st53{fill:#A13090;}&#10;	.st54{fill:#129EC9;}&#10;	.st55{fill:#B3199D;}&#10;	.st56{fill:#A63595;}&#10;	.st57{fill:#1B8BAE;}&#10;	.st58{fill:#B03B9C;}&#10;	.st59{fill:#0798C2;}&#10;	.st60{fill:#279ABD;}&#10;	.st61{fill:#A72CA7;}&#10;	.st62{fill:#C826B2;}&#10;	.st63{fill:#B30295;}&#10;	.st64{fill:#92CAD9;}&#10;	.st65{fill:#BA46A6;}&#10;	.st66{fill:#D3A9CC;}&#10;	.st67{fill:#B080AF;}&#10;	.st68{fill:#01C5EA;}&#10;	.st69{fill:#39DAF8;}&#10;	.st70{fill:#029EC7;}&#10;	.st71{fill:#0194BB;}&#10;	.st72{fill:#01779D;}&#10;	.st73{fill:#015A96;}&#10;	.st74{fill:#4D4791;}&#10;	.st75{fill:#FE43D3;}&#10;	.st76{fill:#FE36CD;}&#10;	.st77{fill:#B60196;}&#10;	.st78{fill:#C1029C;}&#10;	.st79{fill:#EF1FC0;}&#10;	.st80{fill:#A50289;}&#10;	.st81{fill:#86017B;}&#10;	.st82{fill:#8C017E;}&#10;	.st83{fill:#A70191;}&#10;	.st84{fill:#C7C6CA;}&#10;	.st85{fill:#B27EA4;}&#10;	.st86{fill:#FDFDFD;}&#10;	.st87{fill:#014C87;}&#10;	.st88{fill:#E519B9;}&#10;	.st89{fill:#CAC9CE;}&#10;	.st90{fill:#F83ACD;}&#10;	.st91{fill:#016FA3;}&#10;	.st92{fill:#02C8EF;}&#10;	.st93{fill:#EA26C3;}&#10;	.st94{fill:#A9018B;}&#10;	.st95{fill:#EB29C4;}&#10;	.st96{fill:#EB2BC6;}&#10;	.st97{fill:#EE2BC5;}&#10;	.st98{fill:#F02BC6;}&#10;	.st99{fill:#01669E;}&#10;	.st100{fill:#26D6F5;}&#10;	.st101{fill:#01ABD6;}&#10;	.st102{fill:#0481AB;}&#10;	.st103{fill:#0684AE;}&#10;	.st104{fill:#BF029A;}&#10;	.st105{fill:#E81EBD;}&#10;	.st106{fill:#C905A5;}&#10;	.st107{fill:#CF07A6;}&#10;	.st108{fill:#E51FBD;}&#10;	.st109{fill:#D30FAB;}&#10;	.st110{fill:#0496BF;}&#10;	.st111{fill:#0AB0D6;}&#10;	.st112{fill:#0D98C0;}&#10;	.st113{fill:#04B1DA;}&#10;	.st114{fill:#E4E5E7;}&#10;	.st115{fill:#FCFCFD;}&#10;	.st116{fill:#780172;}&#10;	.st117{fill:#80017A;}&#10;	.st118{fill:#015594;}&#10;	.st119{fill:#015E9A;}&#10;	.st120{fill:#0171A7;}&#10;	.st121{fill:#790175;}&#10;	.st122{fill:#E8E8EA;}&#10;	.st123{fill:#7D0275;}&#10;	.st124{fill:#E9E7EA;}&#10;	.st125{fill:#E5E5E7;}&#10;	.st126{fill:#E9E8E9;}&#10;	.st127{fill:#E0E0E2;}&#10;	.st128{fill:#0B82AD;}&#10;	.st129{fill:#878DB0;}&#10;	.st130{fill:#C4CADC;}&#10;	.st131{fill:#A27F9E;}&#10;	.st132{fill:#8BA2C1;}&#10;	.st133{fill:#BDC4D7;}&#10;	.st134{fill:#AA84A4;}&#10;	.st135{fill:#44709A;}&#10;	.st136{fill:#FA40D0;}&#10;	.st137{fill:#C210A4;}&#10;	.st138{fill:#742E9F;}&#10;	.st139{fill:#CBC9CE;}&#10;	.st140{fill:#86037A;}&#10;	.st141{fill:#43478E;}&#10;	.st142{fill:#1274A9;}&#10;	.st143{fill:#1084B4;}&#10;	.st144{fill:#F031C9;}&#10;	.st145{fill:#019BCB;}&#10;	.st146{fill:#B885B2;}&#10;</style>&#10;<g
   id="g170"
   transform="matrix(1.1347689,0,0,1.1113119,-57.239521,-24.35749)">&#10;	<g
   id="g169"
   transform="translate(30.554135,0.87297528)">&#10;		&#10;		<path
   id="path2"
   class="st1"
   d="m 289.21023,27.890248 c -1.85999,0.04 -3.23054,1.119133 -3.28054,3.079131 -0.04,1.639998 0.38007,3.930249 2.16007,3.810249 1.34999,-0.09 4.41007,0.08044 3.95007,-3.119554 0.05,-1.999998 -0.3096,-3.819826 -2.8296,-3.769826 z m -21.68324,10.11614 c -1.16951,0.03371 -2.47346,0.27326 -3.92253,0.713543 -0.33512,0.08914 -0.66495,0.206512 -0.9914,0.326894 -0.035,0.01226 -0.0681,0.02091 -0.10326,0.03339 0.003,-4.2e-5 0.007,4.3e-5 0.0103,0 -4.26999,1.869998 -4.70983,6.039918 -5.88983,9.769914 -1.76999,5.569994 -5.75025,8.350414 -9.64024,6.780415 -8.31,-3.359996 -13.32956,-1.130393 -15.82956,7.409599 -1.31,4.489995 -3.78973,7.940463 -7.14972,11.07046 -6.09,5.659994 -13.31006,9.778589 -19.74005,14.968584 0.2262,0.158858 0.33596,0.313708 0.5284,0.471009 -0.18957,-0.107458 -0.3688,-0.250079 -0.5284,-0.460464 -6.79999,3.899996 -13.60098,7.810193 -20.40097,11.710188 2e-4,0.007 -1.8e-4,0.0125 0,0.0193 -5.01,1.05 -9.28917,4.56131 -14.65917,4.41131 -0.047,0.007 -0.0941,0.009 -0.14113,0.0158 0.0437,-0.0153 0.0871,-0.03 0.1308,-0.0457 -4.10999,0.02 -8.22043,0.0287 -12.33043,0.0387 0.0408,0.0139 0.0814,0.0267 0.12221,0.0404 -0.0373,-0.005 -0.0746,-0.006 -0.11188,-0.0106 -1.49,-0.09 -3.10061,0.17014 -4.44061,-0.31986 -5.36999,-1.97 -7.36913,1.22987 -8.28913,5.47987 -3.32999,15.40998 -13.54086,24.30131 -27.66085,29.50131 -8.58999,3.15999 -15.48898,0.70915 -20.758974,-6.82084 -2.619997,-3.75 -3.670329,-8.17036 -5.800327,-12.10035 -0.429977,-3.93847 -0.78704,-6.23491 0.228915,-9.40963 0.427981,-3.27568 0.429256,-8.83345 -3.748699,-11.650437 0.01886,0.03239 0.03487,0.06589 0.05336,0.09842 -3.016308,-2.315301 -7.790364,-2.976754 -10.024067,-0.9385 -3.189997,2.90999 -4.469888,6.30054 -2.25989,10.62054 1.579998,3.08999 3.789691,5.41063 6.569688,7.30063 3.089997,2.1 5.83024,4.66889 6.850239,8.29889 2.889997,10.26999 3.329718,20.72124 1.35972,31.24123 -0.309999,1.67 -0.849666,2.81913 -2.989664,1.78913 -2.259998,-1.08 -4.429452,-0.48966 -5.509451,1.78034 -1.02648,2.16259 -1.256055,4.51371 1.414798,5.96494 -0.587337,1.24553 -1.103402,2.50086 -0.63511,3.9157 0.03,1.37 0.06983,2.72969 0.09983,4.08969 -2.309998,10.83999 -7.859803,20.7603 -9.099802,31.90029 0.0053,0.003 0.01024,0.004 0.01549,0.007 -0.0017,5.9e-4 -0.0034,0.001 -0.0052,0.002 -0.0099,0.65595 -0.01033,1.32183 -0.01033,1.98772 -0.0035,0.001 -0.0069,0.002 -0.01033,0.004 -0.109999,1.32 -0.210136,2.62855 -0.320136,3.93854 -0.0037,6e-5 -0.0066,-6e-5 -0.01033,0 -1.159999,1.52 -1.079463,3.41068 -1.509462,5.14068 0.01095,0.003 0.02009,0.007 0.03098,0.0105 -2.829998,9.42999 -7.180728,18.20035 -11.760724,26.87034 -0.0035,-4e-5 -0.0069,4e-5 -0.01033,0 -4.379995,7.45999 -9.460626,13.68965 -18.810617,15.56965 -4.278342,0.84967 -5.907446,4.95599 -4.180711,9.52386 -0.0028,-10e-4 -0.0058,-0.002 -0.0086,-0.004 0.449999,1.26 1.149305,2.31853 2.399304,2.93853 0.0012,-5.2e-4 0.0023,-10e-4 0.0034,-0.002 0.250582,0.71315 0.700173,0.91157 1.487087,0.84184 5.579995,-0.46 8.52116,-3.71936 10.511158,-8.75935 1.949998,-4.94 4.459647,-9.83082 10.989641,-9.98082 0.0013,-1e-4 0.0022,1.1e-4 0.0034,0 -0.0047,0.003 -0.009,0.007 -0.01377,0.0106 2.429998,2.34 2.460252,5.23968 1.850253,8.24968 -1.309999,6.43999 -3.540622,12.59024 -6.230619,18.58024 -0.5,0.83 -1.07053,1.6297 -1.490529,2.5097 -5.119995,10.71999 -12.138909,19.24113 -24.598897,21.66112 -1.409998,0.28 -2.799576,1.02022 -4.039575,1.81022 -5.665817,3.58736 -5.999462,8.33222 -0.981064,13.06874 -0.0035,2e-5 -0.0069,-2e-5 -0.01033,0 4.369995,3.35999 10.68036,1.3102 13.170358,-4.63979 2.179998,-5.2 4.280926,-10.3705 8.450922,-14.36049 12.989987,-8.56999 24.03968,-3.83907 28.939675,8.95092 0.581506,1.50797 1.240261,2.97633 1.862301,4.46404 0.0017,0.0155 0.0052,0.0301 0.0069,0.0457 0.04,7.41999 1.939891,14.64063 2.25989,22.07062 0.27,6.34 2.22125,12.59932 2.671249,18.94931 0.53,7.43 4.018582,14.71062 1.218585,22.36061 -0.599999,1.63 0.130049,3.32949 1.370048,4.56949 4.029996,4.00999 3.271389,8.54971 0.991391,12.82971 -2.529997,4.75 -1.820106,8.45074 2.25989,11.72073 0.02572,0.006 0.04671,0.008 0.07229,0.0141 -0.01842,0.001 -0.03487,0.004 -0.05336,0.005 1.949998,3.42999 4.591067,1.61106 6.771065,0.60106 2.989997,-1.41 4.038698,-4.19124 3.748698,-7.44123 -0.279999,-3.13 -2.278768,-5.40886 -3.908766,-7.87885 -2.199998,-3.33 -4.46075,-6.62078 -1.760753,-10.85078 0.919999,-1.45 0.350758,-3.18917 -0.239242,-4.78917 -1.199545,-3.21878 -2.310008,-6.46786 -3.459542,-9.70665 0.04897,-0.65486 0.06046,-1.31833 0.149741,-1.96312 0.789999,-5.47999 2.839879,-10.43148 8.259873,-12.54148 5.059992,-1.97 9.310052,0.53133 12.950042,4.12132 4.24,4.18 8.51999,8.31998 12.78998,12.47998 0.009,0.006 0.0171,0.0131 0.0258,0.0193 1.04484,2.69633 3.07612,5.38476 1.63339,8.31998 -1.15,2.35 -0.40011,3.68995 1.25989,5.02995 0.97,0.79 2.21006,1.13999 3.16006,0.28999 1.61,-1.43 1.34008,-3.35073 0.95008,-5.27073 -0.25839,-1.28203 -2.12383,-3.13508 0.91566,-3.58002 0.0155,0.002 0.0292,0.008 0.0447,0.0105 1.76001,-0.08 2.50892,1.74063 4.01893,2.14063 0.008,0.002 0.016,0.003 0.0241,0.005 1.77791,2.1332 4.02624,3.98159 4.13596,7.13367 0.05,1.85 1.49156,1.82119 2.89156,1.86119 1.98,0.06 1.84893,-1.22043 2.01893,-2.62043 0.34999,-2.93999 -1.99957,-4.38067 -3.24957,-6.43067 -0.002,-10e-4 -0.005,-0.002 -0.007,-0.004 0.10498,-1.40939 0.9123,-2.13543 2.2771,-1.86646 9.37999,1.84 18.17937,4.7811 23.92936,13.21109 0.001,6.7e-4 0.002,10e-4 0.003,0.002 -1.46081,2.34615 -3.88673,1.86772 -6.09293,2.07736 -0.004,4.6e-4 -0.008,10e-4 -0.012,0.002 0.007,-0.004 0.0149,-0.007 0.0224,-0.0106 -3.27001,-0.87 -6.60122,-0.2515 -9.88121,-0.3515 -3.16001,-0.08 -5.02997,1.72148 -5.20997,4.80148 -0.2,3.49 1.71982,5.62898 5.0998,6.26898 2.81001,0.54 5.13153,-0.69019 7.31152,-2.39019 3.2693,-2.54928 6.02725,-6.79914 11.09292,-4.04224 0.31366,0.92869 1.22904,2.1389 1.95696,3.10198 2.17,2.33 2.27983,5.33102 2.88984,8.21102 0.4,1.85999 1.41887,3.38925 3.64886,3.04925 1.42,-0.02 2.81035,0.18988 3.59035,-1.26012 0.85,-1.57 1.08984,-3.40925 -0.11016,-4.62925 -2.51999,-2.54999 -5.3298,-4.82082 -8.0998,-7.11082 -0.65263,-0.71059 -0.96979,-1.9851 -1.50257,-2.68721 1.39185,-1.36956 3.54897,-0.93946 5.25128,-1.54835 0.004,0.002 0.008,0.003 0.012,0.005 0.99,0.08 2.01901,0.35157 2.969,0.19157 18.12999,-3.09 32.40986,3.78892 44.20985,17.03891 3.16,3.56 4.06053,7.56109 1.49054,11.92109 0.007,-0.003 0.0134,-0.006 0.0207,-0.009 -0.007,0.006 -0.0134,0.0116 -0.0207,0.0176 -1.2336,1.10427 -2.47713,2.21904 -3.71083,3.32342 -0.006,-0.002 -0.0126,-0.002 -0.0189,-0.004 -2.01001,1.17 -4.02064,2.32984 -6.02064,3.47984 -0.005,0.005 -0.0106,0.009 -0.0155,0.0141 -4.3045,0.92128 -8.47596,2.82959 -12.66435,3.4816 -0.10904,0 -2.80923,0.1841 -2.95352,0.28472 -2.47357,-0.0308 -4.96084,-0.27539 -7.4165,0.30053 -3.57999,0.49 -7.22946,0.75908 -10.29945,2.94907 -3.52,2.5 -4.9596,7.18037 -2.8296,10.52037 2.2,3.44999 4.81926,5.77981 9.81925,4.05981 4.06,-1.39 7.49075,-3.25893 10.55074,-6.13893 2.95965,-2.78966 6.42609,-6.34393 10.11874,-8.36216 1.66201,-0.35751 3.83577,-1.2472 5.611,-1.97367 19.72862,-6.70017 40.37768,-9.84146 60.38021,-15.51516 3.84,-1.08 7.24934,-0.54881 9.55934,3.15119 0.004,-0.004 0.006,-0.01 0.0103,-0.0141 -1.7e-4,0.005 1.7e-4,0.009 0,0.0141 0.84,4.79999 -1.58051,8.26899 -4.7005,11.42899 -2.32,2.34999 -4.70023,4.6198 -7.06022,6.9298 -4.7e-4,0.003 -0.001,0.007 -0.002,0.0105 -3.67806,1.0198 -6.86552,3.0383 -10.12389,4.91747 -10e-4,-0.003 -0.002,-0.004 -0.003,-0.007 -3.92,0.91 -6.64959,3.34943 -6.82959,7.30943 -0.15,3.16999 2.09858,5.73988 5.21858,6.47988 4.73999,1.12 8.57128,-1.43933 10.04128,-5.46932 4.06895,-11.16715 12.1847,-18.79764 20.91216,-26.07596 0.006,-10e-4 0.0112,-0.004 0.0172,-0.005 0.73,-0.67 1.40965,-1.39948 2.19965,-1.98948 8.51999,-6.41 17.14029,-12.69997 25.59028,-19.21997 6.02,-4.65999 12.94086,-9.92041 21.87085,-6.78041 1.56,1.8 1.79926,3.93032 2.02926,6.23032 0.59,5.55999 -1.05058,10.60983 -2.86058,15.66982 -4.7e-4,0.005 -10e-4,0.0104 -0.002,0.0158 -1.08562,2.29949 -2.18163,4.5892 -3.2771,6.87883 -4e-5,-10e-4 4e-5,-0.002 0,-0.004 -2.32,1.47 -3.42121,3.98888 -5.09121,6.00887 -3.42999,4.17 -4.38003,8.60104 -0.58003,13.08104 1.27,1.5 0.59033,2.64036 0.0103,4.07036 -1.89,4.63999 -5.59983,7.76893 -8.88982,11.29893 -4.66,5 -4.5001,9.33089 0.25989,13.69089 0.0186,0.003 0.0348,0.004 0.0534,0.007 -0.0186,4.1e-4 -0.0347,10e-4 -0.0534,0.002 6.65,2.51 10.14009,0.0906 10.53009,-6.72944 0.25,-4.22 -1.30022,-8.11042 -1.27022,-12.23041 l -0.003,0.009 c 0.002,-0.006 0.002,-0.0118 0.003,-0.0176 1.08,-2.51 2.16096,-5.01032 3.24096,-7.52032 0.69604,-0.72493 1.5187,-1.36234 2.35627,-1.98948 -0.68567,0.69096 -1.46265,1.35675 -2.35627,1.98948 6.42999,-2.51 8.96989,-7.13076 8.04989,-14.01075 -0.83,-6.27999 0.48901,-12.44982 1.96901,-18.53981 -0.0102,0.007 -0.0191,0.0143 -0.0293,0.0211 0.0106,-0.0132 0.0185,-0.0273 0.0293,-0.0404 8.21999,-19.35999 18.3496,-37.64115 30.98959,-54.49113 0.002,-0.003 0.002,-0.006 0.003,-0.009 0.002,0.007 0.005,0.0124 0.007,0.0193 6.6,-4.34999 9.45066,-3.47999 12.60066,3.87 0.37999,0.89 0.79965,1.75976 1.19965,2.63976 0.0139,0.0364 0.0244,0.0726 0.0379,0.10897 -0.0164,-0.0329 -0.0315,-0.0655 -0.0482,-0.0984 0.37,4.38999 -0.51974,8.56936 -2.14974,12.62936 -1.09999,2.74999 -1.17056,5.44035 -0.0706,8.23034 1.38,3.48 3.89125,5.02042 7.46125,4.20042 3.25,-0.75 4.79933,-2.86056 4.97933,-6.46055 0.24,-4.85 -2.91031,-7.92947 -5.01031,-11.59947 -0.003,-0.004 -0.007,-0.006 -0.0103,-0.0106 0.007,1.9e-4 0.0137,-1.8e-4 0.0207,0 -0.46,-2.08999 -0.81899,-4.21953 -1.38899,-6.27953 -1.87999,-6.61999 0.79933,-13.16952 0.18933,-19.75951 2.36,-8.93999 3.65038,-18.17059 7.17038,-26.81059 -10e-4,-0.007 -0.002,-0.009 -0.003,-0.0158 1.33786,-3.29467 2.68453,-6.58893 4.02236,-9.87361 2.83076,-5.02361 4.07263,-10.55521 5.12047,-16.12677 0.007,-0.0211 0.0139,-0.0421 0.0206,-0.0633 3.26,-10.83999 3.86936,-22.28104 7.55936,-33.01103 l -0.0103,-0.005 c 0.0107,-0.003 0.0202,-0.003 0.031,-0.005 1.39965,-2.8193 2.8,-5.6302 4.19965,-8.43949 2.98296,-2.91308 5.96745,-5.81698 8.96038,-8.71015 -0.0128,0.002 -0.0251,0.003 -0.0379,0.005 0.0192,-0.008 0.0376,-0.0165 0.0568,-0.0246 3.93904,-1.85485 7.88913,-3.69889 11.83816,-5.55369 0.004,0.001 0.008,0.002 0.012,0.004 5.24,-0.7 10.52015,-1.17996 15.69014,-2.15996 3.03,-0.57 5.81981,-2.44023 6.3098,-5.68023 0.46807,-3.11716 1.15267,-6.78923 -2.85197,-8.61699 -0.006,-0.0115 -0.011,-0.0219 -0.0172,-0.0334 -5.74,-2.23999 -10.24055,-0.5497 -13.86055,4.2303 -4.64,6.12999 -10.57947,10.50098 -17.87947,12.95098 -3.71999,1.24999 -7.70088,2.22917 -10.87088,-0.66082 -3.37999,-3.08 -4.29999,-7.42983 -2.99999,-11.79982 0.55,-1.83 0.51962,-3.53994 0.61962,-5.31994 0.13,-0.19 0.23073,-0.37791 0.29776,-0.56416 0.30401,-0.50715 0.62348,-1.00671 0.73322,-1.55538 2.78769,-13.56011 7.84607,-26.08984 16.61441,-36.9566 0.0381,-0.0414 0.0766,-0.0891 0.11532,-0.14412 3.06999,-3.35999 6.60997,-5.96947 10.99996,-7.43947 2.22,-0.74 4.07968,-2.15971 5.77968,-3.79971 3.05999,-2.93999 3.0599,-6.65117 2.04991,-10.18116 -0.83,-2.92 -3.56928,-4.43901 -6.60928,-4.39901 -3.8,0.05 -6.60061,2.03866 -8.23061,5.48865 -1.57,3.33 -2.16943,6.95158 -2.92943,10.51158 0.004,-0.002 0.008,-0.003 0.012,-0.005 -0.004,0.005 -0.008,0.009 -0.012,0.0141 -3.02999,6.61999 -7.45974,12.02097 -13.72973,15.82097 -0.008,0.006 -0.0174,0.0114 -0.0258,0.0176 0.005,-0.009 0.0103,-0.0186 0.0155,-0.0281 -3.11,1 -6.23077,2.00005 -9.34076,3.00004 0.0126,3.5e-4 0.0252,0.001 0.0379,0.002 -0.009,0.003 -0.0184,0.005 -0.0275,0.009 -5.70999,0.73 -10.61896,-1.24119 -15.17896,-4.44119 -3.58999,-2.52 -5.98035,-6.05999 -8.38035,-9.60998 -0.39143,0.36718 -0.7069,0.50213 -0.97074,0.48858 0.26017,-0.11849 0.571,-0.28129 0.96041,-0.49737 -3.33999,-7.13999 -4.55972,-14.05071 -0.35972,-21.6207 2.12,-3.81 3.1599,-8.88913 -1.7401,-12.39913 8.3e-4,0.008 9e-4,0.0164 0.002,0.0246 -0.005,-0.008 -0.007,-0.0164 -0.012,-0.0246 -5.22999,-2.06 -8.81069,0.37948 -9.18069,6.14948 -0.09,1.37999 0.85039,3.26939 -0.8296,4.01939 -1.75,0.79 -3.08906,-0.70035 -4.33906,-1.78035 -2.54,-2.18999 -4.60045,-4.82916 -6.33045,-7.65916 -7.86999,-12.88999 -16.0709,-25.54998 -25.24089,-37.56997 -0.008,0.002 -0.0126,0.007 -0.0207,0.009 0.004,-0.006 0.008,-0.0131 0.012,-0.0193 -0.68897,-2.62609 1.18296,-5.66095 -1.23063,-8.019445 -1.95821,-2.657573 -3.93608,-2.631 -5.92425,-0.058 -0.005,-7.83e-4 -0.0104,-9.84e-4 -0.0155,-0.0018 -2.98,3.429995 0.77941,4.619695 2.13941,6.669695 0.82,1.24 3.92975,2.17059 0.93975,4.30059 -4.37999,-3.3 -9.70003,-5.34131 -13.16003,-9.86131 -0.0138,0.008 -0.0259,0.0116 -0.0396,0.0193 0.007,-0.0104 0.0137,-0.0176 0.0206,-0.0281 -0.42,-0.670002 -0.72087,-1.4707 -1.29087,-1.9807 -6.23,-5.579994 -12.04986,-11.449782 -15.25986,-19.409774 -0.3,-0.739999 -0.80954,-1.550152 -1.45954,-1.970151 -6.29,-4.089996 -9.99092,-9.720188 -11.45092,-17.160181 -0.56,-2.839997 -3.18855,-4.509364 -6.42855,-4.599364 -2.7,-0.08 -4.53067,1.459175 -5.60067,3.499173 -1.57,2.989997 1.00051,4.979749 2.70051,6.799747 1.30999,1.399999 3.39998,2.021067 4.99998,3.181066 8.84999,6.399994 13.86997,16.109623 20.78996,24.179615 0.28,0.33 0.20981,0.959934 0.30981,1.449933 0.1,3.949996 -0.8303,7.469306 -4.2203,9.919296 3e-5,0.008 -4e-5,0.0135 0,0.0211 -1.26,-0.25 -2.03073,0.67916 -2.97073,1.20916 -0.005,0.002 -0.0103,0.002 -0.0155,0.004 0.002,-0.001 0.005,-0.002 0.007,-0.004 -18.41999,-1.39 -34.78979,-8.3588 -50.04978,-18.35879 -1.71999,-1.129999 -3.51136,-1.050708 -5.20136,-0.400709 -1.34,0.52 -1.7597,1.940332 -1.5697,3.360331 0.3,2.189997 1.96992,3.01003 3.83992,3.29003 1.46,0.22 2.97987,0.119877 4.46987,0.02988 2.44587,-0.139764 4.58321,0.458353 6.36142,2.191597 -0.8048,1.038393 -1.32725,2.37952 -2.79173,2.768054 -0.003,0.0035 -0.003,0.007 -0.005,0.01054 l -10.07398,0.05976 c 0.009,0.0056 0.0173,0.01025 0.0258,0.01582 -0.005,-0.0022 -0.0104,-0.0031 -0.0155,-0.0053 -2.25,-0.13 -4.39994,-0.531405 -6.62993,-1.091404 -5.18,-1.309999 -9.52028,-5.249964 -15.22027,-4.739964 0.0487,0.04939 0.0912,0.09783 0.13425,0.145872 -0.0514,-0.04521 -0.10023,-0.09384 -0.14458,-0.145872 -2.17999,1.109999 -2.76948,2.581123 -1.08949,4.601121 0.004,-0.0061 0.008,-0.01162 0.012,-0.01758 -8e-5,0.0059 -0.002,0.01167 -0.002,0.01758 0.93507,1.392651 2.23677,2.159643 3.91393,2.275956 -5.38486,5.587528 -11.81683,8.549818 -19.69529,7.963208 V 93.160093 c 0.008,-0.03342 0.012,-0.06675 0.0207,-0.100177 1.73,-7.219993 7.65911,-11.149938 12.4991,-15.929934 0.0107,-0.01013 0.022,-0.01975 0.0327,-0.02988 3.16117,-1.773846 6.18629,-3.867769 9.51804,-5.230305 5.01,-2.069998 9.40088,-4.720136 12.87088,-9.000131 3.03,-3.729997 7.33883,-5.589804 11.85883,-6.929803 2.85999,-0.849999 5.83075,-1.429336 8.55076,-2.599335 5.51998,-2.389997 7.57984,-6.640955 5.67983,-10.95095 -1.34062,-3.031872 -3.52823,-4.475575 -6.7332,-4.383193 z M 261.811,98.694445 c 0.005,0.09242 0.0354,0.181712 0.0757,0.270654 -0.0554,-0.01958 -0.10886,-0.03065 -0.16523,-0.05448 0.003,-1.7e-5 0.006,0 0.009,0 0.0282,-0.07175 0.055,-0.144423 0.0809,-0.216172 z m 202.93918,43.383765 c -2.10315,-0.0219 -3.50693,1.25446 -3.60068,3.39196 -0.1,2.34 1.11966,4.07028 3.98966,4.52028 2,-0.47 3.85099,-1.43969 3.82099,-4.08969 -0.03,-2.34 -1.57969,-3.60146 -3.77968,-3.80146 -0.14625,-0.0131 -0.29008,-0.0196 -0.43029,-0.0211 z m -95.78975,9.94215 c 0.002,0.004 0.005,0.008 0.007,0.0123 -0.005,-6.2e-4 -0.009,-0.003 -0.0138,-0.004 0.003,-0.002 0.004,-0.007 0.007,-0.009 z m -4.69017,0.0703 c -0.93507,1.74456 -0.67149,3.74021 -0.67986,5.64859 -0.07,15.23999 0.0398,30.49113 -0.0602,45.75111 -0.0545,0.49893 -0.025,0.92451 0.0396,1.31988 -1.45554,-0.66871 -2.97481,-0.95256 -4.57657,-0.73463 0.0598,-0.0659 0.11953,-0.13743 0.17728,-0.21618 -0.11,-1.40999 -1.21055,-1.95904 -2.28055,-2.23904 -5.24999,-1.39 -9.90948,-4.15112 -14.87947,-6.18111 -0.68172,-0.0673 -1.29886,0.0199 -1.79346,0.4587 -0.72361,-1.18099 -1.69735,-1.75681 -3.17727,-1.1371 -0.33011,-0.16082 -0.66597,-0.33004 -0.99828,-0.49912 0.0863,-0.0541 0.17185,-0.0886 0.25818,-0.15115 1.8,-3.46 1.09082,-7.21048 0.92082,-10.78047 -0.54,-11.71999 4.72978,-20.0199 14.30977,-26.11989 1.41524,-0.90282 3.23889,-1.41964 4.2203,-2.89284 2.63858,-0.15204 5.0666,-1.10919 7.54903,-1.91743 0.32359,-0.0956 0.64715,-0.20178 0.97074,-0.30932 z m 14.38894,36.12707 c 0.0841,0.004 0.1712,0.006 0.26334,0 -0.0638,0.13566 -0.11088,0.26288 -0.18244,0.40247 -0.0331,-0.15481 -0.0492,-0.25189 -0.0809,-0.40247 z m -57.80018,4.59409 c 0.0438,0.0939 0.0894,0.18434 0.12909,0.28472 -0.006,-0.002 -0.0125,-0.005 -0.0189,-0.007 -0.0604,-0.003 -0.12036,-0.006 -0.18072,-0.009 0.0269,-0.0921 0.0506,-0.18211 0.0706,-0.2689 z m 15.34719,8.48467 c 3.56621,2.83978 7.59844,1.91925 11.88337,1.70353 5.24,2.71 11.13982,4.15926 15.67982,8.20926 0.74,0.23 0.67998,1.11144 1.20998,1.51144 0.0761,0.0499 0.14498,0.10865 0.21859,0.16169 -0.46785,0.19851 -0.92736,0.69392 -1.358,1.74695 -0.51,3.14 -0.22023,6.31115 -0.27023,9.47114 -0.2471,17.72187 -0.52365,23.50576 -0.86918,41.89868 -3.05322,32.42092 -27.29155,63.23065 -77.31992,49.90055 -15.95998,-5.92999 -28.3799,-16.23047 -35.99989,-32.29045 -10.91999,20.76998 -27.34002,32.87116 -50.32,35.56115 -6.16411,0.59688 -3.72935,0.75173 -10.31494,0.96838 -9.36799,-0.54147 -17.79296,-0.89816 -26.68495,-0.13884 l -0.11016,-0.0703 c -0.75999,1.76 -0.3107,3.60078 -0.3907,5.40078 -0.27,6.27 0.48069,12.55872 -0.39931,18.80871 -1.88,9.06999 -7.5405,15.11136 -15.49049,19.31136 0.014,0.0126 0.029,0.0226 0.043,0.0351 -0.0142,-0.006 -0.0288,-0.0101 -0.043,-0.0158 -1.50358,0.59983 -3.00759,1.20798 -4.51117,1.81549 -0.29374,-0.0802 -0.58552,-0.16666 -0.87952,-0.24605 -0.95,-0.15 -1.8896,-0.11915 -2.8296,0.0808 -1.22999,0.23 -2.51026,0.93043 -3.64026,-0.24957 -0.0529,-0.2137 -0.0818,-0.42892 -0.12392,-0.64324 0.35155,-1.71541 0.78485,-3.41825 0.78485,-5.20746 0.61574,-34.91371 -1.08915,-76.66551 1.18933,-109.96997 3.22,-14.07998 10.13975,-25.84913 21.51973,-34.90912 29.21662,-23.29646 68.26484,-9.0005 81.81044,6.87884 l 7.23313,10.85607 c 3.05546,4.41395 4.01673,4.41491 6.02673,0.51492 9.42999,-16.46999 23.42955,-26.35119 42.19953,-29.53119 1.9905,-0.33317 4.29345,0.0219 6.06367,-1.26891 0.5873,0.96119 1.21977,1.89367 2.00688,2.69951 0.002,0.002 0.005,0.003 0.007,0.005 0.0652,0.25641 0.20491,0.50794 0.41308,0.75397 1.38,1.65 2.75047,3.30086 4.12047,4.95086 1.41,0.4 2.62025,-0.20045 3.85025,-0.75045 3.29999,-1.59 3.50997,-4.12895 2.20997,-7.13894 -0.0511,-0.35215 -0.19242,-0.64156 -0.39758,-0.88578 z m 19.82311,3.08316 c 0.0259,0.008 0.0515,0.0135 0.0774,0.0211 -10e-4,7.3e-4 -0.002,0.001 -0.003,0.002 -0.0249,-0.007 -0.0491,-0.0158 -0.074,-0.0229 z M 71.080055,227.61021 c -0.0025,0.21512 0.0011,0.4183 0,0.63094 -0.123128,-0.0572 -0.264683,-0.10106 -0.416522,-0.13708 0.139741,-0.16442 0.268781,-0.33168 0.416522,-0.49386 z m 229.789355,1.30933 c -25.8078,4.81044 -36.4402,32.28956 -19.69872,52.78109 18.08409,22.21198 54.64937,11.05902 56.14958,-20.46075 l -0.46867,-32.63026 c -10.90532,-0.99989 -22.56204,-0.29904 -35.98219,0.30992 z m -125.34904,5.28128 c -7.59999,5.80999 -12.53023,13.10902 -13.64023,22.74901 -0.59,11.66999 -0.46057,23.33052 -0.0706,35.00051 l 41.46841,-0.31757 c 45.86828,-14.40501 21.93809,-61.97443 -5.86712,-62.5427 -8.40429,-0.11502 -15.33838,0.47969 -21.89046,5.11075 z m -6.44232,155.7984 c 0.0123,0.0138 0.0198,0.0265 0.0327,0.0404 -0.0223,0.0119 -0.0447,0.0234 -0.0671,0.0351 0.011,-0.0253 0.0228,-0.0504 0.0344,-0.0756 z m -6.506,50.95505 c -0.1686,0.004 -0.34622,0.0185 -0.53184,0.0457 -1.6,0.24 -3.29089,0.82065 -3.08089,3.14064 0.17,2.2 1.81133,3.14986 3.62133,3.18986 2.03,0.05 2.57979,-1.54051 2.51979,-3.46051 -0.0634,-1.89406 -0.89861,-2.95011 -2.52839,-2.91569 z"
   sodipodi:nodetypes="cccccccccccccccccccccccccccccccccccccccccccccccccccccccccccccccccccccccccccccccccccccccccccccccccccccscccccccccscccccccccccccccccccccccccccccccccccccccccccccccccccccccccccsccccccccccccccccccccccccccccccccccccccccccccccccccccccccccccscccccccccccccccccccccccccccccccccccccccccccccccccccccccccccccccccccccccccccccsccccccccccccccccccccccccccccccccccccccccccccccccccccccccccccccccccccccccccccccccccccccccscccccccccccccsccccscccscccccc"
   style="fill:#000000" />&#10;		&#10;		&#10;		&#10;		&#10;		&#10;		&#10;		&#10;		&#10;		&#10;		&#10;		&#10;		&#10;		&#10;		&#10;		&#10;		&#10;		&#10;		&#10;		&#10;		&#10;		&#10;		&#10;		&#10;		&#10;		&#10;		&#10;		&#10;		&#10;		&#10;		&#10;		&#10;		&#10;		&#10;		&#10;		&#10;		&#10;		&#10;		&#10;		&#10;		&#10;		&#10;		&#10;		&#10;		&#10;		&#10;		&#10;		&#10;		&#10;		&#10;		&#10;		&#10;		&#10;		&#10;		&#10;		&#10;		&#10;		&#10;		&#10;		&#10;		&#10;		&#10;		&#10;		&#10;		&#10;		&#10;		&#10;		&#10;		&#10;		&#10;		&#10;		&#10;		&#10;		&#10;		&#10;		&#10;		&#10;		&#10;		&#10;		&#10;		&#10;		&#10;		&#10;		&#10;		&#10;		&#10;		&#10;		&#10;		&#10;		&#10;		&#10;		&#10;		&#10;		&#10;		&#10;		&#10;		&#10;		&#10;		&#10;		&#10;		&#10;		&#10;		&#10;		&#10;		&#10;		&#10;		&#10;		&#10;		&#10;		&#10;		&#10;		&#10;		&#10;		&#10;		&#10;		&#10;		&#10;		&#10;		&#10;		&#10;		&#10;		&#10;		&#10;		&#10;		&#10;		&#10;		&#10;		&#10;		&#10;		&#10;		&#10;		&#10;		&#10;		&#10;		&#10;		&#10;		&#10;		&#10;		&#10;		&#10;		&#10;		&#10;		&#10;		&#10;		&#10;		&#10;		&#10;		&#10;		&#10;		&#10;		&#10;		&#10;		&#10;		&#10;		&#10;		&#10;		&#10;		&#10;		&#10;		&#10;		&#10;		&#10;		&#10;		&#10;		&#10;		&#10;		&#10;		&#10;	</g>&#10;</g>&#10;</svg>
