<?xml version="1.0" encoding="UTF-8" standalone="no"?>
<!-- Generator: Adobe Illustrator 27.2.0, SVG Export Plug-In . SVG Version: 6.00 Build 0)  -->

<svg
   version="1.1"
   id="Слой_1"
   x="0px"
   y="0px"
   viewBox="0 0 512 512"
   style="enable-background:new 0 0 512 512;"
   xml:space="preserve"
   sodipodi:docname="pdai2.svg"
   inkscape:version="1.3 (0e150ed6c4, 2023-07-21)"
   xmlns:inkscape="http://www.inkscape.org/namespaces/inkscape"
   xmlns:sodipodi="http://sodipodi.sourceforge.net/DTD/sodipodi-0.dtd"
   xmlns="http://www.w3.org/2000/svg"
   xmlns:svg="http://www.w3.org/2000/svg"><defs
   id="defs170" /><sodipodi:namedview
   id="namedview170"
   pagecolor="#ffffff"
   bordercolor="#000000"
   borderopacity="0.25"
   inkscape:showpageshadow="2"
   inkscape:pageopacity="0.0"
   inkscape:pagecheckerboard="0"
   inkscape:deskcolor="#d1d1d1"
   inkscape:zoom="3.2399854"
   inkscape:cx="310.18659"
   inkscape:cy="177.31562"
   inkscape:window-width="2560"
   inkscape:window-height="1369"
   inkscape:window-x="-8"
   inkscape:window-y="-8"
   inkscape:window-maximized="1"
   inkscape:current-layer="g169" />&#10;<style
   type="text/css"
   id="style1">&#10;	.st0{fill:#FFFFFF;}&#10;	.st1{fill:#01B8E0;}&#10;	.st2{fill:#DE15B5;}&#10;	.st3{fill:#950184;}&#10;	.st4{fill:#035995;}&#10;	.st5{fill:#7F0175;}&#10;	.st6{fill:#6C0169;}&#10;	.st7{fill:#0182AE;}&#10;	.st8{fill:#01A4CF;}&#10;	.st9{fill:#019AC5;}&#10;	.st10{fill:#03B0D9;}&#10;	.st11{fill:#D70EAF;}&#10;	.st12{fill:#C413A8;}&#10;	.st13{fill:#E222BF;}&#10;	.st14{fill:#D21AB3;}&#10;	.st15{fill:#0191BB;}&#10;	.st16{fill:#01A2CB;}&#10;	.st17{fill:#DE22BC;}&#10;	.st18{fill:#AC0C97;}&#10;	.st19{fill:#800273;}&#10;	.st20{fill:#C311A6;}&#10;	.st21{fill:#05B7E1;}&#10;	.st22{fill:#017EA7;}&#10;	.st23{fill:#D811B0;}&#10;	.st24{fill:#0B85B0;}&#10;	.st25{fill:#BE0CA1;}&#10;	.st26{fill:#F331CA;}&#10;	.st27{fill:#0398BE;}&#10;	.st28{fill:#9A128E;}&#10;	.st29{fill:#B10A97;}&#10;	.st30{fill:#DA2ABA;}&#10;	.st31{fill:#05B1DC;}&#10;	.st32{fill:#C119A4;}&#10;	.st33{fill:#D418B3;}&#10;	.st34{fill:#AA1893;}&#10;	.st35{fill:#B50B9A;}&#10;	.st36{fill:#0880AD;}&#10;	.st37{fill:#D119B1;}&#10;	.st38{fill:#A1078B;}&#10;	.st39{fill:#AD0793;}&#10;	.st40{fill:#BA3DA3;}&#10;	.st41{fill:#CE17AF;}&#10;	.st42{fill:#A0158D;}&#10;	.st43{fill:#0897C1;}&#10;	.st44{fill:#E92EC5;}&#10;	.st45{fill:#1089B0;}&#10;	.st46{fill:#1173AB;}&#10;	.st47{fill:#097BAF;}&#10;	.st48{fill:#B1369E;}&#10;	.st49{fill:#0F72A8;}&#10;	.st50{fill:#9B0C8A;}&#10;	.st51{fill:#B0239D;}&#10;	.st52{fill:#9A1386;}&#10;	.st53{fill:#A13090;}&#10;	.st54{fill:#129EC9;}&#10;	.st55{fill:#B3199D;}&#10;	.st56{fill:#A63595;}&#10;	.st57{fill:#1B8BAE;}&#10;	.st58{fill:#B03B9C;}&#10;	.st59{fill:#0798C2;}&#10;	.st60{fill:#279ABD;}&#10;	.st61{fill:#A72CA7;}&#10;	.st62{fill:#C826B2;}&#10;	.st63{fill:#B30295;}&#10;	.st64{fill:#92CAD9;}&#10;	.st65{fill:#BA46A6;}&#10;	.st66{fill:#D3A9CC;}&#10;	.st67{fill:#B080AF;}&#10;	.st68{fill:#01C5EA;}&#10;	.st69{fill:#39DAF8;}&#10;	.st70{fill:#029EC7;}&#10;	.st71{fill:#0194BB;}&#10;	.st72{fill:#01779D;}&#10;	.st73{fill:#015A96;}&#10;	.st74{fill:#4D4791;}&#10;	.st75{fill:#FE43D3;}&#10;	.st76{fill:#FE36CD;}&#10;	.st77{fill:#B60196;}&#10;	.st78{fill:#C1029C;}&#10;	.st79{fill:#EF1FC0;}&#10;	.st80{fill:#A50289;}&#10;	.st81{fill:#86017B;}&#10;	.st82{fill:#8C017E;}&#10;	.st83{fill:#A70191;}&#10;	.st84{fill:#C7C6CA;}&#10;	.st85{fill:#B27EA4;}&#10;	.st86{fill:#FDFDFD;}&#10;	.st87{fill:#014C87;}&#10;	.st88{fill:#E519B9;}&#10;	.st89{fill:#CAC9CE;}&#10;	.st90{fill:#F83ACD;}&#10;	.st91{fill:#016FA3;}&#10;	.st92{fill:#02C8EF;}&#10;	.st93{fill:#EA26C3;}&#10;	.st94{fill:#A9018B;}&#10;	.st95{fill:#EB29C4;}&#10;	.st96{fill:#EB2BC6;}&#10;	.st97{fill:#EE2BC5;}&#10;	.st98{fill:#F02BC6;}&#10;	.st99{fill:#01669E;}&#10;	.st100{fill:#26D6F5;}&#10;	.st101{fill:#01ABD6;}&#10;	.st102{fill:#0481AB;}&#10;	.st103{fill:#0684AE;}&#10;	.st104{fill:#BF029A;}&#10;	.st105{fill:#E81EBD;}&#10;	.st106{fill:#C905A5;}&#10;	.st107{fill:#CF07A6;}&#10;	.st108{fill:#E51FBD;}&#10;	.st109{fill:#D30FAB;}&#10;	.st110{fill:#0496BF;}&#10;	.st111{fill:#0AB0D6;}&#10;	.st112{fill:#0D98C0;}&#10;	.st113{fill:#04B1DA;}&#10;	.st114{fill:#E4E5E7;}&#10;	.st115{fill:#FCFCFD;}&#10;	.st116{fill:#780172;}&#10;	.st117{fill:#80017A;}&#10;	.st118{fill:#015594;}&#10;	.st119{fill:#015E9A;}&#10;	.st120{fill:#0171A7;}&#10;	.st121{fill:#790175;}&#10;	.st122{fill:#E8E8EA;}&#10;	.st123{fill:#7D0275;}&#10;	.st124{fill:#E9E7EA;}&#10;	.st125{fill:#E5E5E7;}&#10;	.st126{fill:#E9E8E9;}&#10;	.st127{fill:#E0E0E2;}&#10;	.st128{fill:#0B82AD;}&#10;	.st129{fill:#878DB0;}&#10;	.st130{fill:#C4CADC;}&#10;	.st131{fill:#A27F9E;}&#10;	.st132{fill:#8BA2C1;}&#10;	.st133{fill:#BDC4D7;}&#10;	.st134{fill:#AA84A4;}&#10;	.st135{fill:#44709A;}&#10;	.st136{fill:#FA40D0;}&#10;	.st137{fill:#C210A4;}&#10;	.st138{fill:#742E9F;}&#10;	.st139{fill:#CBC9CE;}&#10;	.st140{fill:#86037A;}&#10;	.st141{fill:#43478E;}&#10;	.st142{fill:#1274A9;}&#10;	.st143{fill:#1084B4;}&#10;	.st144{fill:#F031C9;}&#10;	.st145{fill:#019BCB;}&#10;	.st146{fill:#B885B2;}&#10;</style>&#10;<g
   id="g170"
   transform="matrix(1.1347689,0,0,1.1113119,-57.239521,-24.35749)">&#10;	<g
   id="g169"
   transform="translate(30.554135,0.87297528)">&#10;		&#10;		<path
   class="st1"
   d="m 204.27,89.08 c 6.43,-5.19 13.65,-9.31 19.74,-14.97 3.36,-3.13 5.84,-6.58 7.15,-11.07 2.5,-8.54 7.52,-10.77 15.83,-7.41 3.89,1.57 7.87,-1.21 9.64,-6.78 1.18,-3.73 1.62,-7.9 5.89,-9.77 0.62,-0.22 1.24,-0.54 1.91,-0.46 2.48,0.3 5.68,-1.24 7.07,2.02 1.48,3.48 -1.33,5.49 -3.43,7.53 -3.11,3.03 -6.99,5.1 -10.66,7.2 -5.87,3.36 -11.45,7.19 -17.32,10.54 -5.29,3.02 -9.91,7.04 -14.34,11.22 -4.84,4.78 -10.77,8.71 -12.5,15.93 -1.73,6.69 -0.55,13.31 0.52,19.92 1,6.19 2.44,12.17 7.79,16.28 2.57,2.86 5.88,4.34 9.58,5.07 5.53,0.88 11.12,-0.11 16.66,0.58 5.95,2.4 6.86,3.98 6.12,10.48 -0.78,1.76 -1.92,3.34 -4.05,2.94 -1.95,-0.37 -1.54,-2.23 -1.63,-3.69 -0.16,-2.91 -2.72,-2.56 -4.45,-3 -4,-1.02 -8.2,-0.4 -12.28,-1.69 -4.37,-1.38 -8.32,-3.18 -11.75,-6.22 -1.44,-1.27 -2.88,-2.92 -5.23,-2.05 -6.19,-2.29 -7.02,-8.07 -8.57,-13.34 -0.42,-1.41 -0.2,-2.94 -0.23,-4.42 -0.12,-7.23 -1.77,-8.07 -8.25,-4.21 -2.47,1.32 -5.09,2.17 -7.85,2.63 -9.08,2.24 -16.81,7.16 -24.04,12.75 -4.72,3.65 -9.49,7.3 -14.01,11.24 -2.53,2.21 -5,4.36 -6.64,7.35 -0.81,1.47 -1.87,2.91 -3.35,3.64 -10.67,5.26 -16.24,16.06 -25.23,23.13 -2.52,1.99 -1.64,4.03 0.36,5.87 2.08,1.91 4.81,2.11 7.35,2.86 4.19,1.24 5.76,4.04 3.26,7.52 -5.55,7.7 -6.78,17.3 -11.81,25.17 -0.71,1.11 -1.71,2.49 -1.37,3.68 1.97,6.9 -2.26,12.06 -4.95,17.91 5.07,-3.93 8.09,-9.49 13.16,-12.99 1.34,-0.93 2.45,-2.36 4.39,-1.82 0.42,0.28 0.64,0.68 0.67,1.18 -2.13,4.19 -6.21,6.65 -9.07,10.19 -12.96,14.76 -21.11,31.92 -25.49,50.97 -0.42,1.84 -0.13,4.08 -2.2,5.28 -2.53,-0.62 -2.74,-2.57 -2.52,-4.62 0.23,-2.12 0.54,-4.23 0.58,-6.36 -0.01,-2.2 0.43,-4.3 1.3,-6.31 2.03,-5.27 3.32,-10.79 5.13,-16.13 1.02,-3 0.48,-5.95 -0.88,-8.71 -3.25,-6.58 -2.71,-12.83 1.41,-18.84 1.61,-2.34 2.13,-4.85 1.07,-7.56 -1.24,-3.17 -0.74,-6.49 -0.7,-9.92 -2.69,0.6 -3.06,2.74 -3.87,4.47 -0.85,1.8 -1.41,3.74 -2.47,5.44 -0.64,1.03 -1.53,1.9 -2.83,1.62 -1.42,-0.3 -1.72,-1.57 -1.54,-2.75 0.93,-6.21 0.37,-12.15 -2.19,-18 -1,-2.29 -0.1,-4.9 0.83,-7.28 1.77,-4.55 4.28,-8.67 7.7,-12.12 5.26,-5.32 10.42,-10.71 15.3,-16.37 9.89,-6.59 17.6,-15.56 25.97,-23.81 1.67,-1.65 3.11,-3.44 4.15,-5.55 8.78,-8.27 16.58,-17.74 27.78,-23.12 0.45,-0.16 0.91,-0.26 1.37,-0.35 7.85,-1.57 15.23,-4.55 22.36,-8.01 3.6,-1.75 7.36,-2.95 10.98,-4.56 1.67,-0.74 3.12,-1.86 4.65,-2.83 3.06,-1.96 2.65,-3.68 0.03,-5.52 z"
   id="path2" />&#10;		<path
   class="st2"
   d="m 343.97,397 c -8.93,-3.14 -15.85,2.12 -21.87,6.78 -8.45,6.52 -17.07,12.81 -25.59,19.22 -0.79,0.59 -1.47,1.32 -2.2,1.99 -1.89,0.36 -2.81,2.95 -5.16,2.27 -1.11,-1.41 -0.15,-2.76 0.19,-4.09 0.71,-2.78 -0.03,-4.72 -2.91,-5.62 -2.5,-2.93 -5.95,-1.91 -9.08,-2.17 -0.44,-0.25 -0.72,-0.62 -0.83,-1.12 2.71,-4.74 6.6,-1.72 10.55,-1.69 -1.79,-1.57 -3.51,-3.15 -2.81,-5.68 0.65,-2.37 2.74,-3.2 4.62,-4.23 3.94,-2.14 8.02,-4.07 11.32,-7.2 1.44,-1.36 3.02,-2.66 3.27,-4.84 4.41,-4.33 10.1,-6.72 15.67,-10.5 -5.04,2.76 -9.78,4.71 -14.05,7.56 -1.24,0.82 -2.44,1.74 -3.95,2.03 -1.17,0.22 -2.44,0.25 -3.07,-0.95 -0.54,-1.02 0.25,-1.88 0.86,-2.66 0.61,-0.79 1.38,-1.44 2.22,-1.98 8.09,-5.16 16.28,-10.14 24.47,-15.13 10.4,-6.28 18.17,-14.9 23.97,-26.69 -3.57,2.13 -5.99,4.3 -9.25,4.61 -1.17,0.11 -2.46,0.1 -3.19,-0.93 -0.84,-1.19 0.15,-2.2 0.84,-3.08 1.44,-1.82 2.76,-3.72 4.03,-5.66 6.45,-7.56 14.28,-13.93 19.29,-22.77 2.05,-3.61 4.11,-7.22 6.22,-10.8 0.81,-1.38 1.32,-3.21 3.55,-2.82 1.8,2.5 0.84,5.02 0.04,7.54 -0.64,2.03 -0.79,4.25 1.37,5.18 1.82,0.78 3.09,-1.17 3.75,-2.52 2.18,-4.46 6.05,-7.84 7.83,-12.52 2.97,-4 5.67,-8.16 7.57,-12.79 0.45,-1.09 1.06,-2.08 2.33,-2.41 3.16,-0.09 4.08,1.91 3.85,4.53 -0.23,2.63 -0.29,5.42 -1.48,7.79 -3.8,7.55 -7.44,15.36 -13.39,21.43 -6.52,6.66 -10.82,14.37 -12.54,23.3 -2.72,14.08 -11.29,24.04 -21.67,32.94 -0.76,0.65 -1.61,1.41 -2.58,1.43 -6.3,0.12 -9.52,4.78 -13.18,8.79 -1.57,1.72 -3.62,2.83 -5.6,3.9 -5.13,2.76 -8.33,6.7 -8.59,12.69 -1.19,2.02 -3.5,2.92 -4.08,3.87 8.37,-5.79 17.03,-13.68 29.84,-10.67 0.43,0.28 0.71,0.66 0.83,1.16 0.01,1.1 -0.64,1.84 -1.41,2.51 z"
   id="path3" />&#10;		<path
   class="st3"
   d="m 306.97,105.18 c 0.94,-0.53 1.71,-1.46 2.97,-1.21 1.76,1.85 3.89,2.21 6.35,1.91 7.64,-0.95 14.29,1.14 20.39,5.98 4.78,3.79 10.17,6.78 15.59,9.64 2.88,1.48 4.05,4.39 5.38,6.99 3.9,7.66 9.04,14.69 11.84,22.92 -1.39,2.21 -3.31,-0.22 -4.87,0.57 -0.44,0.16 -0.88,0.29 -1.32,0.42 -2.58,0.84 -5.1,1.85 -7.86,1.94 -7.77,0.07 -15.56,-0.25 -23.22,1.52 -2.18,0.51 -4.27,0.06 -6.29,-0.81 -4.57,-1.97 -9.25,-3.69 -14.16,-4.47 -7.86,-1.26 -13.1,-6.7 -18.88,-11.32 -3.43,-2.37 -6.36,-5.36 -9.67,-7.87 -1.2,-0.91 -2.43,-1.99 -2.95,-3.35 -2.78,-7.38 -7.19,-13.27 -14.24,-17.16 -1.96,-1.08 -1.99,-3.18 -0.65,-5.24 3.59,-5.56 5.75,-6.28 12.02,-3.96 2.59,0.96 5.09,2.71 8.1,1.47 2.2,-0.49 4.17,0.41 6.2,1.02 4.99,1.48 10.04,2.53 15.27,1.01 z"
   id="path4" />&#10;		<path
   class="st4"
   d="m 126.98,219.83 c -0.01,-0.28 -0.02,-0.57 -0.03,-0.85 0.46,-1.06 1.28,-1.54 2.43,-1.48 2.96,1.16 2.22,2.96 1.19,5.21 -4.46,9.76 -10.97,18.11 -17.54,26.48 -5.86,7.45 -3.92,19.11 3.35,24.94 6.41,5.14 8.26,13.03 10.79,20.33 1.13,3.26 2.11,6.26 5.43,7.85 1.59,7.58 0.57,15.23 0.58,22.85 0,1.11 -0.25,2.52 -1.66,2.73 -1.26,0.19 -2.15,-0.82 -2.87,-1.73 -3.93,-4.96 -8.23,-9.76 -10.54,-15.7 -2.73,-7.01 -9.06,-10.93 -13.38,-16.57 -2.67,-3.49 -9,-1.21 -10.31,3.14 -0.87,2.9 -1.15,5.86 -0.51,8.88 0.7,3.32 0.82,6.73 -0.62,9.82 -4.11,8.84 -3.61,18.08 -2.79,27.39 0.27,3.11 1.33,5.13 5.06,4.16 7.81,-2.04 14.43,0.13 19.99,5.85 1.79,1.84 3.23,2.93 5.63,0.26 2.26,-2.51 6.08,-2.44 9.19,-3.44 2.62,-0.84 2.71,1.75 2.91,3.51 0.42,3.79 -0.4,7.65 0.53,11.41 1.13,1.18 2.41,0.48 3.64,0.25 0.94,-0.2 1.88,-0.23 2.83,-0.08 5.74,1.55 11.44,3.23 16.74,6 2.53,1.51 5.33,2.56 7.7,4.35 1.91,1.59 4.11,2.85 5.67,4.84 1.83,2.35 2.47,4.72 -0.07,7.04 -0.75,0.36 -1.5,0.4 -2.24,-0.02 -5.75,-8.43 -14.55,-11.37 -23.93,-13.21 -1.37,-0.27 -2.18,0.46 -2.28,1.88 -1.93,0.58 -3.87,0.57 -5.81,0.04 -1.51,-0.4 -2.26,-2.22 -4.02,-2.14 -3.32,-0.51 -5.44,-3.02 -7.99,-4.82 -4.27,-4.16 -8.55,-8.3 -12.79,-12.48 -3.64,-3.59 -7.89,-6.09 -12.95,-4.12 -5.42,2.11 -7.47,7.06 -8.26,12.54 -0.09,0.65 -0.1,1.32 -0.15,1.98 -2.21,-0.17 -2.16,-2.17 -2.89,-3.55 -1.3,-5.23 -2.4,-10.49 -2.37,-15.92 -0.11,-8.38 0.37,-16.76 -0.3,-25.12 1.99,-9.92 3.12,-19.96 4.14,-30.02 0.23,-2.26 0.53,-4.68 2.43,-6.38 3.42,-21.63 12,-40.81 27.01,-56.94 4.13,-1.98 6.61,-5.55 9.06,-9.16 z"
   id="path5" />&#10;		<path
   class="st5"
   d="m 284.94,104.09 c -4,2.52 -6.67,-1.45 -10.01,-2.16 -2.78,-0.6 -9.49,3.14 -9.6,5.97 -0.06,1.55 1.21,2.32 2.34,2.97 5.71,3.26 10.1,7.13 12.19,14.05 1.85,6.13 8.76,8.69 13.13,13.13 1.25,2.43 0.41,3.46 -2.2,3.18 -1.85,-0.2 -3.44,-1.21 -5.15,-1.85 -6.85,-2.54 -13.75,-4.84 -21.85,-3.66 2.01,3.14 6.96,3.86 5.89,8.3 -1.12,4.68 0.24,10.26 -4.77,13.59 -4.04,1.33 -7.82,-0.1 -11.48,-1.39 -4.62,-1.63 -5.14,-4.3 -1.97,-8.14 0.52,-0.64 1.05,-1.26 1.37,-2.03 0.67,-4.44 0.28,-8.36 -4.82,-10.02 -5.99,-1.37 -12.13,0.27 -18.13,-0.86 -3.49,-0.67 -6.75,-1.79 -9.03,-4.76 -0.31,-3.18 2.1,-3.35 4.19,-3.57 3.31,-0.35 6.64,-0.2 9.92,0.49 10.69,2.25 21.48,1.13 32.71,1.29 -0.82,-2.65 -2.87,-3.12 -4.51,-3.95 -4.66,-2.36 -9.8,-3.19 -14.85,-4.12 -6.79,-1.25 -9.08,-6.87 -11.71,-11.88 -1.47,-2.8 1.16,-4.94 3.49,-6.37 3.65,-2.23 7.7,-1.87 11.64,-1.14 3.86,0.72 7.58,0.66 11.26,-0.71 0.42,-0.16 0.48,-0.2 0.13,-0.71 -0.13,-0.19 -0.61,-0.19 -0.92,-0.36 -0.47,-0.4 -0.52,-0.84 -0.18,-1.32 1.47,-0.39 1.99,-1.74 2.8,-2.78 -0.2,-0.74 0.09,-1.6 0.81,-1.27 6.59,3.07 13.6,5.34 19.31,10.08 z"
   id="path6" />&#10;		<path
   class="st6"
   d="m 261.72,98.91 c 2.48,1.05 4.02,-2.1 7.05,-1.54 -4.83,5.49 -10.37,6.44 -16.75,5.25 -4.56,-0.85 -9.23,-1.7 -13.17,2.07 -1.89,1.81 -1.49,3.09 -0.44,5.51 3.52,8.18 10.73,9.42 18.03,10.76 4.33,0.8 8.22,2.62 11.84,5 1.05,0.69 2.55,1.66 2.17,3.06 -0.45,1.67 -2.26,1.01 -3.48,0.98 -11.58,-0.3 -23.18,0.81 -34.74,-1.67 -3.47,-0.74 -8.34,-2.5 -11.39,2.07 -5.5,-4.07 -7.27,-9.96 -7.95,-16.37 -0.36,-2.32 -0.97,-4.65 0.33,-6.88 7.89,0.59 14.33,-2.38 19.72,-7.98 -0.38,-4.51 2.51,-4.33 5.33,-3.39 7.1,2.36 14.25,4.09 21.81,3.19 0.55,-0.12 1.09,-0.14 1.64,-0.06 z"
   id="path7" />&#10;		<path
   class="st7"
   d="m 61.04,254.1 c -6.53,0.15 -9.04,5.04 -10.99,9.98 -1.99,5.04 -4.93,8.3 -10.51,8.76 -0.79,0.07 -1.24,-0.13 -1.49,-0.85 -0.38,-1.66 1.03,-1.82 1.98,-2.19 3.26,-1.27 5.33,-3.53 6.11,-6.96 2.16,-4.61 6.27,-7.63 9.43,-11.42 1.92,-2.31 3.87,-4.51 5.02,-7.32 2.65,-4.07 4.21,-8.66 6.3,-13 0.73,-1.51 1.64,-3.31 3.51,-3.05 2.13,0.29 1.72,2.47 1.95,4.03 0.1,0.65 0.18,1.36 0.04,1.99 -2.28,10.04 0.31,19.88 0.92,29.83 0.6,9.81 5.91,16.61 12.32,23.06 3.19,8.23 1.71,16.64 0.84,25.01 -0.1,0.95 -0.54,1.91 -1.11,2.75 -0.57,0.84 -1.24,1.65 -2.36,1.55 -1.16,-0.1 -1.58,-1.07 -1.9,-2.03 -0.41,-1.27 -0.48,-2.6 -0.74,-3.91 -2.33,-11.93 -10.28,-18.02 -22.58,-17.31 -0.84,0.05 -1.65,-0.11 -2.41,-0.49 -2.79,-4.54 1.34,-7.35 2.7,-10.86 3.61,-7.34 5.89,-15.08 6.7,-23.23 0.26,-2.65 -0.51,-4.6 -3.73,-4.34 z"
   id="path8" />&#10;		<path
   class="st8"
   d="m 108.06,163.04 c -5.43,8.22 -13.89,13.8 -19.32,21.99 -3.8,5.74 -6.89,11.4 -2.27,18.76 1.99,3.17 0.97,8.09 0.08,12.19 -0.2,0.92 -0.9,2.08 0.46,2.5 1.21,0.37 1.56,-0.81 1.99,-1.72 1.56,-3.26 1.95,-7.09 4.65,-9.8 0.91,-0.91 1.81,-2.28 3.33,-1.6 1.64,0.74 1.09,2.26 0.62,3.46 -0.63,1.62 -1.06,3.5 -0.44,4.87 2.72,5.99 1.05,11.03 -2.41,16.12 -3.11,4.57 -1.36,9.4 0.73,13.72 1.99,4.13 1.98,8.01 0.23,11.97 -1.94,4.38 -2.06,9.37 -4.65,13.51 -1.99,0.02 -1.79,2.77 -3.59,2.98 -1.33,-0.65 -1.53,-1.82 -1.51,-2.97 0.14,-10.85 -1.49,-21.81 2.49,-32.41 1.03,-2.74 1.24,-5.85 1.51,-8.88 -1.29,-0.01 -1.97,1.07 -2.86,1.73 -4.64,3.43 -5.14,2.92 -8.35,-1.66 -2.67,-3.81 -4.64,-7.45 -4.45,-12.16 0.06,-1.64 -1.67,-2.39 -2.39,-3.69 0.11,-1.31 0.21,-2.62 0.32,-3.94 2.34,-0.82 4.79,-1.53 4.54,-4.81 0.65,-5.23 1.79,-10.33 4.1,-15.11 0.95,-2.04 2.24,-3.86 3.59,-5.65 4.91,-6.17 8.55,-13.49 15.92,-17.42 2.41,-1.26 4.56,-3.49 7.68,-1.98 z"
   id="path9" />&#10;		<path
   class="st9"
   d="m 85.05,287.01 c -8.3,-5.16 -12.36,-12.86 -12.91,-22.39 -0.27,-4.62 0.09,-9.19 -2.68,-13.38 -1.07,-1.61 -0.39,-3.83 0.3,-5.78 1.91,-5.41 1.24,-10.99 1.32,-17.85 -5.22,5.73 -5.31,12.92 -9.95,17.42 -1.01,0.09 -1.89,-0.15 -2.47,-1.06 4.58,-8.67 8.93,-17.44 11.76,-26.87 3.54,-0.42 4.82,1.38 4.66,4.68 -0.11,2.23 0.6,4.22 1.89,6.06 3.74,5.35 3.8,5.71 2.92,12.35 0.29,-2.55 1.28,-4.81 2.92,-6.76 0.97,-1.15 2.13,-2.3 3.82,-1.6 1.44,0.59 1.59,2.07 1.61,3.4 0.05,3.83 -0.29,7.88 -1.49,11.27 -2.58,7.27 -1.01,14.48 -0.93,21.66 0.06,5.58 -0.6,11.21 0.41,16.78 -0.18,0.8 -0.51,1.53 -1.18,2.07 z"
   id="path10" />&#10;		<path
   class="st8"
   d="m 85.05,287.01 c 0.01,-0.67 0.01,-1.35 0.02,-2.02 1.06,-2.02 0.06,-4.13 0.28,-6.15 0.29,-2.58 0.69,-5.59 4.71,-3.85 -0.05,2.28 0.15,4.55 -0.74,6.78 -0.66,1.67 -0.2,3.24 1.59,4.13 -2.58,11.93 -1.64,24.42 -5.79,36.1 0.31,0.46 0.34,0.94 0.09,1.43 -1.08,3.97 -1.21,7.95 -0.26,11.96 0.19,4.23 0.16,8.47 1.07,12.63 -0.3,5.43 1.81,10.55 2.05,15.91 1.09,4.47 1.63,9.1 4.31,13.06 0.79,1.17 0.66,2.57 0.14,3.84 -1.82,4.42 -0.63,8.43 1.6,12.31 1.61,2.8 2.54,5.76 2.16,9.02 -0.51,4.49 -2.85,5.96 -7.55,4.79 -4.08,-3.27 -4.79,-6.97 -2.26,-11.72 2.28,-4.28 3.04,-8.82 -0.99,-12.83 -1.24,-1.24 -1.97,-2.94 -1.37,-4.57 2.8,-7.65 -0.69,-14.93 -1.22,-22.36 -0.45,-6.35 -2.4,-12.61 -2.67,-18.95 -0.32,-7.43 -2.22,-14.65 -2.26,-22.07 -0.58,-5.45 -3.35,-9.93 -6.61,-14.06 -3.34,-4.23 -8.02,-5.54 -13.28,-4.86 -2.09,0.27 -4.21,1.04 -6.16,-0.49 -0.04,-2.18 0.21,-4.07 3.21,-3.08 11.1,-2.81 18.84,1.72 24.42,11.11 2.26,3.8 2.2,8.14 3.05,13.04 2.83,-2.83 3.42,-5.75 3.45,-8.83 0.08,-6.77 0.37,-13.56 -0.99,-20.27 z"
   id="path11" />&#10;		<path
   class="st10"
   d="m 89.93,121.01 c 2.13,3.93 3.18,8.35 5.8,12.1 5.27,7.53 12.17,9.98 20.76,6.82 14.12,-5.2 24.33,-14.09 27.66,-29.5 0.92,-4.25 2.92,-7.45 8.29,-5.48 1.34,0.49 2.95,0.23 4.44,0.32 4.11,0.51 8.22,0.59 12.33,-0.04 5.37,0.15 9.65,-3.36 14.66,-4.41 1.62,2.82 -0.86,3.42 -2.46,4.22 -6.46,3.22 -13.26,5 -20.55,4.39 -0.48,0.01 -0.97,0.01 -1.46,0 -10.11,-0.34 -10.11,-0.34 -13.48,9.36 -2.72,7.42 -8.01,12.95 -13.54,18.3 -6.8,5.98 -15.09,8.3 -23.79,9.14 -5.86,0.56 -10.56,-2.2 -14.25,-7.07 -0.58,3.84 0.29,7.36 0,10.9 -0.78,9.47 -4.67,14.59 -12.44,16.06 -2.7,-1.45 -2.47,-3.81 -1.44,-5.98 1.08,-2.27 3.25,-2.86 5.51,-1.78 2.14,1.03 2.68,-0.12 2.99,-1.79 1.97,-10.52 1.53,-20.97 -1.36,-31.24 -1.02,-3.63 -3.76,-6.2 -6.85,-8.3 -2.78,-1.89 -4.99,-4.21 -6.57,-7.3 -2.21,-4.32 -0.93,-7.71 2.26,-10.62 2.4,-2.19 7.76,-1.29 10.69,1.46 3.1,6.49 1.49,13.66 2.8,20.44 z"
   id="path12" />&#10;		<path
   class="st11"
   d="m 303.96,390.94 c 0.67,4.78 -3.61,5.94 -6.25,7.99 -2.96,2.3 -6.57,3.75 -9.88,5.62 -3.71,2.09 -3.83,4.13 -0.47,6.57 1.09,0.79 3.34,1.12 2.11,3.1 -0.91,1.46 -2.37,0.16 -3.54,-0.3 -2.99,-1.18 -5.96,-1.72 -8.94,0.04 -6.5,2.53 -13.07,4.73 -20.2,3.69 -2.72,-0.39 -5.22,0.04 -7.78,0.99 -6.83,2.54 -13.53,5.57 -20.93,6.19 -1.89,0.16 -4.03,0.96 -5.09,-1.59 1.24,-1.11 2.49,-2.23 3.73,-3.34 2.93,-2.4 2.78,-5.29 1.35,-8.41 -0.6,-1.32 -1.63,-2.49 -1.55,-4.07 1.61,-1.59 0.12,-2.58 -0.7,-3.74 -1.12,-1.58 -1.62,-3.05 1.02,-3.6 2.96,-0.06 4.87,1.84 6.85,3.64 5.07,4.63 10.67,6.46 17.82,5.51 6.96,-0.92 13.23,-2.99 19.25,-6.3 1.18,-0.65 2.43,-1.08 3.77,-1.23 9.57,-1.8 18.31,-5.69 26.64,-10.62 0.91,-0.53 1.82,-1 2.79,-0.14 z"
   id="path13" />&#10;		<path
   class="st12"
   d="m 368.97,152.04 c -5.67,-9.96 -9.88,-20.77 -17.15,-29.81 -4.29,-2.89 -7.2,-6.92 -9.48,-11.48 0.23,-1.41 -0.22,-3.17 1.79,-3.72 9.17,12.02 17.37,24.68 25.24,37.57 1.73,2.83 3.79,5.47 6.33,7.66 1.25,1.08 2.59,2.57 4.34,1.78 1.68,-0.75 0.74,-2.64 0.83,-4.02 0.37,-5.77 3.95,-8.21 9.18,-6.15 1.94,3.26 1.59,6.4 -0.95,9.09 -2.07,2.2 -2.24,4.33 -1.58,7.24 0.87,3.8 0.54,7.83 0.71,11.77 -0.68,0.89 -1.55,1.38 -2.69,1.38 -2.06,-0.91 -1.87,-3.07 -2.63,-4.71 -0.55,-1.92 -0.9,-3.88 -1.35,-5.83 -0.3,-1.3 -0.65,-2.89 -2.38,-2.64 -1.9,0.28 -1.37,1.97 -1.23,3.23 0.57,5.29 1.49,10.53 2.52,15.75 0.35,1.79 0.81,3.59 0.66,5.43 -0.13,1.46 -0.08,3.32 -1.93,3.61 -2.03,0.33 -2.28,-1.61 -2.62,-2.98 -0.99,-4.03 -1.79,-8.11 -2.72,-12.17 -1.48,-6.46 -2.14,-13.14 -5.24,-19.17 -0.31,-0.63 -0.11,-1.28 0.35,-1.83 z"
   id="path14" />&#10;		<path
   class="st13"
   d="m 385.94,173.03 c 0.43,-0.79 1.16,-0.96 1.97,-0.97 0.18,0.16 0.37,0.32 0.55,0.48 3.14,9.42 8.87,16.31 18.53,19.71 4.37,1.54 8.41,0.41 12.57,-0.46 1.99,-0.65 3.83,-1.6 5.51,-2.84 6.27,-3.8 10.7,-9.2 13.73,-15.82 1.51,-1.66 1.69,-3.83 2.2,-5.87 0.2,-0.8 0.47,-1.58 0.7,-2.37 1.12,-3.77 3.13,-6.56 7.45,-6.79 1.82,-0.1 3.29,0.46 3.75,2.45 0.94,4.06 -0.57,7.36 -3.91,9.4 -5.28,3.23 -8.21,8.39 -11.75,13.09 -8.52,9.01 -12.71,20.19 -15.71,31.9 -0.49,1.9 -1.2,3.74 -1.49,5.7 -1.29,4.15 -1.78,8.38 -1.64,12.71 0.05,1.48 0.99,3.46 -1.52,4.03 -3.86,-2.49 -1.87,-6.23 -2.04,-9.51 0.39,-1.55 0.75,-3.1 0.79,-4.71 0.84,-7.79 3.22,-15.16 6.14,-22.39 0.54,-1.33 1.68,-2.99 0.63,-4.2 -1.22,-1.42 -2.71,0.17 -4.01,0.63 -1.57,0.55 -3.13,1.05 -4.81,1.13 -3.2,0.09 -6.4,0.09 -9.49,-0.92 -8.41,-3.54 -14.78,-9.18 -18.06,-17.87 -0.8,-2.09 -1.97,-4.32 -0.09,-6.51 z"
   id="path15" />&#10;		<path
   class="st14"
   d="m 416.92,237.02 c 2.39,-4.72 -0.24,-10.11 1.98,-14.86 0.34,-0.72 0.64,-1.46 0.96,-2.19 0.69,0.7 0.64,1.43 0.12,2.19 -0.1,1.78 -0.07,3.49 -0.62,5.32 -1.3,4.37 -0.38,8.72 3,11.8 3.17,2.89 7.15,1.91 10.87,0.66 7.3,-2.45 13.24,-6.82 17.88,-12.95 3.62,-4.78 8.12,-6.47 13.86,-4.23 2.47,4.53 2.09,6.54 -2.44,9.09 -4.58,2.58 -9.75,3.85 -14.57,5.92 -0.79,0.34 -2.09,-0.02 -2.1,1.46 -3.96,1.86 -7.92,3.71 -11.87,5.57 -4.14,1.74 -6.8,4.99 -8.98,8.73 -1.4,2.81 -2.8,5.62 -4.2,8.44 -1.15,0.29 -1.88,-0.27 -2.42,-1.2 -0.84,-4.3 2.12,-7.2 4.11,-10.31 1.74,-2.72 2.17,-4.08 -1.27,-5.86 -2.64,-1.33 -6.3,-3.15 -4.31,-7.58 z"
   id="path16" />&#10;		<path
   class="st15"
   d="m 85.07,183.03 c -1,1.66 -2.01,3.33 -3.01,4.99 -2.3,2.19 -2.74,0.51 -2.67,-1.42 0.08,-2 0.97,-3.85 1.65,-5.72 0.82,-2.25 1.21,-4.47 0.3,-6.77 -0.03,-1.36 -0.07,-2.72 -0.1,-4.09 6.93,-2.73 10.07,-9 12.97,-14.99 3.88,-8.01 3.48,-8.22 12.32,-8.29 3.33,-0.02 6.52,-1.02 9.82,-1.21 1.62,-0.09 3.25,-0.81 4.8,0.27 0.9,1.33 0.48,2.68 -0.36,3.7 -4.4,5.38 -8.62,10.62 -16.7,10.97 -7.98,0.34 -11.19,7.31 -14.93,13.04 -1.88,2.89 -1.73,6.76 -4.09,9.52 z"
   id="path17" />&#10;		<path
   class="st16"
   d="m 90.06,274.99 c -3.66,-0.22 -3.34,2.8 -3.94,4.97 -0.45,1.64 0.58,3.61 -1.06,5.02 -0.33,-8.76 -1.07,-17.53 -0.87,-26.28 0.15,-6.54 1.5,-13.06 2.33,-19.58 0.1,-0.81 0.52,-1.62 0.47,-2.41 -0.08,-1.4 0.85,-3.49 -0.78,-4.03 -1.88,-0.62 -2.55,1.5 -3.42,2.86 -1.68,2.65 -1.87,6.01 -4.22,8.71 -0.89,-1.71 -0.2,-3.11 0.06,-4.6 0.72,-4.13 1.37,-8.31 -3.14,-11.02 -1.72,-1.03 -1.57,-2.87 -1.4,-4.49 0.34,-3.24 0,-5.99 -3.7,-7.05 0.43,-1.73 0.35,-3.62 1.51,-5.14 3.18,-0.05 4.19,1.28 4.04,4.62 -0.12,2.83 -1.51,6.9 3.35,7.92 0.23,0.05 0.45,0.49 0.53,0.78 0.59,2.08 -0.18,5.22 3,5.43 2.24,0.15 3.13,-2.76 5.12,-3.66 0.87,-0.39 1.68,-0.9 3.07,-1.65 0.1,8.81 -2.35,16.66 -4.12,24.6 -0.82,3.7 -2.3,7.33 1.47,10.46 1.34,1.12 0.59,2.79 -0.15,4.13 -1.09,1.97 -1.44,4.03 -1.01,6.24 1.79,0.43 0.09,-6.46 3.86,-1.83 -0.33,2.01 -1.34,3.89 -1,6 z"
   id="path18" />&#10;		<path
   class="st17"
   d="m 343.97,397 c 0.02,-0.85 0.2,-1.62 1.02,-2.07 0.52,-0.5 1.36,-0.82 1.78,-0.38 4.38,4.53 5.97,0.45 7.66,-2.55 3.16,-5.62 6.21,-11.3 9.5,-16.86 2.45,-4.32 5.3,-8.38 8.13,-12.44 1.39,-1.99 2.71,-4.25 5.6,-4.42 1.01,0.35 2.15,0.61 1.42,2.12 -12.64,16.85 -22.77,35.13 -30.99,54.49 -2.04,2.49 -1.25,5.94 -2.89,8.57 -1.95,4.29 -4.13,8.48 -3.15,13.5 0.24,1.21 -0.14,2.64 -1.68,3.18 -0.49,-0.14 -1.02,-0.47 -1.03,-0.92 -0.13,-3.13 -1.85,-3.96 -4.65,-3.36 -0.63,-4.56 4.19,-6.32 5.16,-10.06 l -0.03,0.07 c 1.62,-2.08 3.08,-4.23 3.32,-6.97 1.81,-5.06 3.45,-10.11 2.86,-15.67 -0.23,-2.3 -0.47,-4.43 -2.03,-6.23 z"
   id="path19" />&#10;		<path
   class="st18"
   d="m 314.16,94.03 c -0.1,-0.49 -0.03,-1.12 -0.31,-1.45 -6.92,-8.07 -11.94,-17.78 -20.79,-24.18 -1.6,-1.16 -3.69,-1.78 -5,-3.18 -1.7,-1.82 -4.27,-3.81 -2.7,-6.8 1.07,-2.04 2.9,-3.58 5.6,-3.5 3.24,0.09 5.87,1.76 6.43,4.6 1.46,7.44 5.16,13.07 11.45,17.16 0.65,0.42 1.16,1.23 1.46,1.97 3.21,7.96 9.03,13.83 15.26,19.41 0.57,0.51 0.87,1.31 1.29,1.98 -1.66,2.53 -3.08,0.64 -4.28,-0.4 -2.57,-2.21 -5.22,-4.29 -8.41,-5.61 z"
   id="path20" />&#10;		<path
   class="st19"
   d="m 314.16,94.03 c 4.29,-1.73 5.55,2.79 8.37,4.1 1.44,0.67 1.98,3.29 4.34,1.92 3.46,4.52 8.78,6.56 13.16,9.86 0.68,1.22 2.22,0.09 2.98,1.1 2.94,3.74 5.88,7.47 8.81,11.21 -4.41,-0.32 -6.7,-4.53 -10.68,-5.8 -2.11,-0.67 -4.12,-2.2 -5.75,-3.79 -6.1,-5.94 -13.61,-6.47 -21.27,-5.3 -3.46,0.53 -4.17,-0.53 -4.18,-3.38 3.39,-2.45 4.32,-5.97 4.22,-9.92 z"
   id="path21" />&#10;		<path
   class="st20"
   d="m 340,439.97 c 1.35,-1.15 1.25,-2.84 0.88,-4.14 -1.52,-5.3 1.2,-9.12 4.08,-12.94 1.05,5.24 0.53,10.53 0.38,15.78 -0.13,4.55 -4.62,6.03 -7.27,8.79 -1.08,2.51 -2.16,5.01 -3.24,7.52 -1.09,3.79 0.39,7.54 0.19,11.34 -0.36,6.83 -2.44,8.66 -9.45,7.62 -4.76,-4.36 -4.92,-8.69 -0.26,-13.69 3.29,-3.53 7,-6.66 8.89,-11.3 0.58,-1.43 1.26,-2.57 -0.01,-4.07 -3.8,-4.48 -2.85,-8.91 0.58,-13.08 1.67,-2.02 2.77,-4.54 5.09,-6.01 0.15,4.24 -4.76,6.02 -4.91,10.12 0.56,0.46 0.63,1.09 0.66,1.76 0.2,4.89 0.2,4.89 4.39,2.3 z"
   id="path22" />&#10;		<path
   class="st21"
   d="m 55.13,291.98 c -1.99,0.03 -2.34,1.7 -3.05,3.02 -0.91,3.23 -4.34,4.13 -6.1,6.57 -4.54,3.98 -6.84,9.72 -10.94,14.01 -2.52,2.64 -4.81,6.23 -9.49,4.42 -5.03,-4.74 -4.7,-9.49 0.97,-13.08 1.24,-0.79 2.63,-1.53 4.04,-1.81 12.46,-2.42 19.48,-10.94 24.6,-21.66 0.42,-0.88 0.99,-1.68 1.49,-2.51 0.83,-0.22 1.4,-1.62 2.49,-0.65 0.59,0.52 0.34,1.15 -0.06,1.7 -1.28,3.34 -4.08,6.09 -3.95,9.99 z"
   id="path23" />&#10;		<path
   class="st22"
   d="m 121.06,146.05 c -6.37,0.61 -12.55,2.69 -19.15,1.66 -2.97,-0.46 -4.94,2.23 -5.47,4.92 -0.89,4.49 -3.46,7.77 -6.4,10.98 -1.1,1.2 -2.3,2.58 -2.73,4.08 -1.06,3.73 -2.88,4.59 -6.07,2.33 -0.47,-1.42 0.05,-2.68 0.64,-3.93 11.27,-5.3 12.6,-14.6 10.36,-25.43 -0.27,-1.32 -0.88,-3.14 0.76,-4.04 0.99,-0.55 1.85,0.58 2.42,1.32 2.81,3.61 5.85,6.9 10.83,7.02 6.43,0.16 12.48,-1.65 18.26,-4.26 2.67,-1.21 5.04,-3.08 7.54,-4.65 0.97,-0.28 1.31,0.31 1.49,1.1 -2.81,4.85 -6.78,8.09 -12.48,8.9 z"
   id="path24" />&#10;		<path
   class="st23"
   d="m 379.09,360.41 c -0.32,-1.06 -1.14,-1.38 -2.13,-1.45 2.65,-7.11 9.31,-8.59 14.92,-3.3 1.43,-8.58 2.16,-17.31 5.03,-25.61 1.41,-2.26 1.15,-5.27 3.22,-7.23 1.69,0.38 1.24,-1.37 1.95,-1.94 0.63,-0.51 1.59,-2.36 1.99,0.19 -3.52,8.64 -4.81,17.87 -7.17,26.81 -1.74,8.65 -2.31,17.28 0.57,25.83 0.35,3.6 0.58,7.2 1.36,10.76 0.59,2.68 -0.32,5.29 -3.21,5.82 -3.24,0.6 -4.13,-2.16 -4.51,-4.68 -0.37,-2.45 -0.05,-4.84 0.84,-7.27 1.36,-3.66 2.45,-7.47 0.94,-11.42 -0.4,-0.88 -0.82,-1.75 -1.2,-2.64 -3.15,-7.35 -6,-8.22 -12.6,-3.87 z"
   id="path25" />&#10;		<path
   class="st24"
   d="m 225.73,77.13 c 3.08,-5.36 7.94,-9.04 13.03,-11.96 9.42,-5.4 18.6,-11.14 27.67,-17.09 0.55,-0.36 0.99,-0.89 1.43,-1.38 1.52,-1.67 3.97,-3.04 2.84,-5.82 -1.07,-2.64 -3.66,-1.65 -5.7,-1.82 -0.82,-0.07 -1.66,0.01 -2.49,0.02 6.06,-2.15 9.8,-1.1 11.75,3.31 1.9,4.31 -0.16,8.56 -5.68,10.95 -2.72,1.17 -5.69,1.75 -8.55,2.6 -4.52,1.34 -8.83,3.2 -11.86,6.93 -3.47,4.28 -7.86,6.93 -12.87,9 -3.35,1.37 -6.39,3.48 -9.57,5.26 z"
   id="path26" />&#10;		<path
   class="st25"
   d="M 211.28183,433.80816 C 207.58869,435.82627 204.12,439.38 201.16,442.17 c -3.06,2.88 -6.49,4.75 -10.55,6.14 -5,1.72 -7.62,-0.61 -9.82,-4.06 -2.13,-3.34 -0.69,-8.02 2.83,-10.52 3.07,-2.19 6.72,-2.46 10.3,-2.95 3.07,-0.72 6.19,-0.15 9.27,-0.33 1.61,0.54 1.08,1.5 0.16,2.02 -2.89,1.62 -5.85,3.22 -9.36,2.3 -3.14,-0.82 -5.84,0.46 -8.54,1.71 -1.78,0.83 -2.12,2.39 -1.93,4.16 0.13,1.27 0.79,2.21 1.99,2.59 1.78,0.56 3.21,0.05 4.22,-1.61 3.07,-5.05 8.21,-6.98 13.45,-8.55 2.3,-0.68 4.92404,-0.28446 8.10183,0.73816 z"
   id="path27"
   sodipodi:nodetypes="ccccccccccccccc" />&#10;		<path
   class="st26"
   d="m 222.99,423.22 c 5.19,1.31 10.06,-0.54 14.86,-1.88 4.25,-1.18 8.24,-3.27 12.39,-4.84 1.05,-0.4 2.33,-0.72 3.38,-0.49 6.87,1.55 13.37,-0.19 19.9,-1.91 1.09,-0.29 2.31,-0.11 3.47,-0.15 -0.03,0.31 -0.07,0.62 -0.12,0.93 -10.12,3.7 -20.64,5.96 -31.08,8.5 -10.44,2.54 -21.13,4.14 -31.01,8.66 l -0.3,-0.06 c -0.46,0.17 -0.92,0.35 -1.4,0.4 -1.38,0.15 -3.35,1.13 -3.88,-0.68 -0.63,-2.18 1.78,-2.14 3.11,-2.84 1.52,-0.8 3.41,-0.8 4.66,-2.16 2,-1.15 4.01,-2.31 6.02,-3.48 z"
   id="path28" />&#10;		<path
   class="st27"
   d="m 160,108.11 c 6.78,0.39 13.38,-0.33 19.53,-3.41 1.73,-0.87 4.43,-0.91 4.34,-3.9 6.8,-3.9 13.6,-7.81 20.4,-11.71 1.54,2.03 4.7,-1.29 5.14,0.82 0.54,2.54 -2.64,3.85 -4.32,5.54 -4.24,4.26 -10.37,4.78 -15.5,7.36 -7.43,3.73 -15.12,7.19 -23.57,8.24 -1.46,-2.12 -5.33,0.74 -6.02,-2.94 z"
   id="path29" />&#10;		<path
   class="st28"
   d="m 284.94,104.09 c -6.3,-2.35 -12.27,-5.37 -18.07,-8.76 -0.74,-0.43 -1.35,-0.99 -2.05,-0.03 -1.78,-1.74 -3.92,-2.34 -6.37,-2.2 -1.49,0.09 -3.01,0.19 -4.47,-0.03 -1.87,-0.28 -3.54,-1.1 -3.84,-3.29 -0.19,-1.42 0.23,-2.84 1.57,-3.36 1.69,-0.65 3.48,-0.73 5.2,0.4 15.26,10 31.63,16.97 50.05,18.36 -5.23,3 -10.48,1.56 -15.74,0.08 -2.05,-0.59 -4.05,-1.54 -6.28,-1.17 z"
   id="path30" />&#10;		<path
   class="st29"
   d="m 436.86,182.91 c 3.06,-5.11 5.13,-10.87 11.18,-13.74 3.12,-1.48 4.66,-4.59 3.83,-8.35 -0.46,-2.09 -2.13,-1.81 -3.55,-1.71 -3.86,0.26 -4.89,3.27 -6.04,6.27 -1.01,2.64 -0.05,6.19 -3.48,7.74 0.76,-3.56 1.36,-7.18 2.93,-10.51 1.63,-3.45 4.43,-5.44 8.23,-5.49 3.04,-0.04 5.78,1.48 6.61,4.4 1.01,3.53 1.01,7.24 -2.05,10.18 -1.7,1.64 -3.56,3.06 -5.78,3.8 -4.39,1.47 -7.93,4.08 -11,7.44 -0.31,0.44 -0.6,0.45 -0.88,-0.03 z"
   id="path31" />&#10;		<path
   class="st30"
   d="m 404.06,321.07 c -2.24,-1.38 -0.98,3.14 -3.15,1.88 -1.75,-2.09 -0.65,-4.11 0.13,-6.14 5.12,-9.49 7.44,-19.87 9.52,-30.33 0.88,-7.26 3.25,-14.19 4.85,-21.29 0.41,-1.8 0.85,-4.03 3.46,-4.23 0.64,0.34 1.28,0.68 1.92,1.02 -3.69,10.73 -4.3,22.17 -7.56,33.01 -1.72,5.39 -3.77,10.68 -5.14,16.19 -1.34,3.29 -2.69,6.59 -4.03,9.89 z"
   id="path32" />&#10;		<path
   class="st31"
   d="m 58.65,243.97 c 0.97,0.01 1.89,0.14 2.47,1.06 -1.34,5.87 -6.86,8.6 -10.02,13.12 -1.16,1.66 -2.85,3.08 -4.04,4.84 -1.03,1.9 -2.32,3.62 -3.73,5.24 -2.26,2.59 -4.81,3.37 -7.67,0.84 -1.73,-4.57 -0.1,-8.68 4.18,-9.53 9.35,-1.88 14.43,-8.11 18.81,-15.57 z"
   id="path33" />&#10;		<path
   class="st32"
   d="m 226.99,407 c 0.74,1.78 1.48,3.57 2.23,5.35 1.37,3.25 1.34,6.02 -2.5,7.54 2.57,-4.36 1.67,-8.36 -1.49,-11.92 -11.8,-13.25 -26.08,-20.13 -44.21,-17.04 -0.95,0.16 -1.98,-0.11 -2.97,-0.19 -2.62,-1.33 -5.65,1.51 -8.17,-0.8 0.18,-2.35 2.05,-2.94 3.79,-3.07 5.32,-0.42 10.64,-2.05 16.01,-0.35 4.94,0.54 9.92,0.85 14.76,2.03 4.11,1 7.81,2.81 10.65,6.08 4.03,4.04 9.31,6.91 11.9,12.37 z"
   id="path34" />&#10;		<path
   class="st33"
   d="m 216.97,426.71 c -1.42,2.98 -5.23,2.22 -7.72,4.91 2.13,0.15 6.13214,-0.4028 7.70618,0.18816 C 214.75647,432.70814 211.9,433.89 210.2,433.97 c -8.29,-0.46 -15.38,1.7 -19.85,9.31 -1.22,2.08 -3.05,1.77 -4.79,1.52 -2.01,-0.28 -3.22,-1.65 -3.48,-3.67 -0.28,-2.23 -0.18,-4.67 2.15,-5.6 3.26,-1.29 6.3,-3.6 10.35,-2 3.63,1.44 5.90495,-0.94636 8.75495,-2.84636 -0.2,-0.23 -2.12921,-0.0809 -2.00921,-0.20087 0.1,-0.1 2.85446,-0.28729 2.96446,-0.28729 4.19343,-0.6528 8.3698,-2.56548 12.6798,-3.48548 z"
   id="path35"
   sodipodi:nodetypes="ccccccccccscc" />&#10;		<path
   class="st34"
   d="m 289.03,427.06 c 1.99,-0.09 3.08,-2.47 5.27,-2.07 -8.73,7.28 -16.85,14.91 -20.92,26.08 -1.47,4.03 -5.3,6.59 -10.04,5.47 -3.12,-0.74 -5.37,-3.31 -5.22,-6.48 0.18,-3.96 2.91,-6.4 6.83,-7.31 0.66,1.72 0.69,1.74 -0.44,2.95 -1.55,1.67 -3.74,3.07 -2.7,5.87 0.36,0.98 1.27,1.64 2.33,1.6 3.14,-0.14 3.93,-2.71 4.78,-5.01 1.02,-2.77 3.45,-4.43 4.98,-6.78 4.79,-5.04 9.05,-10.65 15.13,-14.32 z"
   id="path36" />&#10;		<path
   class="st35"
   d="m 392.88,366.93 c 1.44,2.83 1.62,5.72 0.25,9.76 -1.03,3.02 -1.46,6.08 -1.16,9.23 0.19,1.95 1.16,3.91 3.24,3.57 2.14,-0.35 3.13,-2.36 2.53,-4.62 -0.97,-3.62 -2.55,-7.16 -0.78,-10.97 0.39,-0.41 0.77,-0.42 1.13,0.03 2.1,3.67 5.25,6.75 5.01,11.6 -0.18,3.6 -1.73,5.71 -4.98,6.46 -3.57,0.82 -6.08,-0.72 -7.46,-4.2 -1.1,-2.79 -1.03,-5.48 0.07,-8.23 1.63,-4.06 2.52,-8.24 2.15,-12.63 z"
   id="path37" />&#10;		<path
   class="st36"
   d="m 88.75,406.97 c 6.07,-0.41 8.49,-3.95 5.65,-9.88 -2.86,-5.96 -4.55,-11.7 -2.56,-18.19 0.16,-0.53 -0.05,-1.45 -0.44,-1.85 -3.7,-3.73 -3.45,-8.42 -3.31,-13.1 0.6,0.98 1.21,1.97 1.81,2.95 1.15,3.24 2.26,6.49 3.46,9.71 0.59,1.6 1.16,3.34 0.24,4.79 -2.7,4.23 -0.44,7.52 1.76,10.85 1.63,2.47 3.63,4.75 3.91,7.88 0.29,3.25 -0.76,6.03 -3.75,7.44 -2.18,1.01 -4.82,2.83 -6.77,-0.6 z"
   id="path38" />&#10;		<path
   class="st37"
   d="m 274.96,441.87 c -3.21,3.06 -4.87,7.14 -7.12,10.84 -1.78,2.93 -4.02,2.55 -6.21,0.92 -2.48,-1.85 -1.99,-4.11 -0.43,-6.46 1.08,-1.64 3.68,-1.95 3.75,-4.41 3.26,-1.88 6.45,-3.9 10.13,-4.92 0.95,1.36 -1.14,2.65 -0.12,4.03 z"
   id="path39" />&#10;		<path
   class="st9"
   d="m 81.34,174.11 c 3.68,4.07 0.03,7.74 -0.63,11.58 -0.19,1.13 -2.09,3.28 1.35,2.33 -1.84,5.21 -3.85,10.37 -4,15.99 -1.52,1.89 -3.17,3.39 -5.82,2 1.24,-11.14 6.79,-21.06 9.1,-31.9 z"
   id="path40" />&#10;		<path
   class="st38"
   d="m 445.84,239.25 c -1.49,-0.5 -1.49,-1.08 -0.06,-1.66 3.82,-1.55 7.67,-3.06 11.48,-4.62 1.83,-0.75 3.63,-1.58 5.43,-2.43 3.67,-1.73 2.9,-4.77 2.25,-7.77 4.06,1.82 3.37,5.51 2.9,8.64 -0.49,3.24 -3.28,5.11 -6.31,5.68 -5.17,0.98 -10.45,1.46 -15.69,2.16 z"
   id="path41" />&#10;		<path
   class="st39"
   d="m 387.91,172.06 c -1.44,-4.73 0,-9.96 -2.61,-14.51 -0.78,-1.36 0.05,-2.68 1.17,-3.48 3.63,-2.59 3.99,-6.24 3.59,-10.2 4.9,3.51 3.86,8.59 1.74,12.4 -4.2,7.57 -2.98,14.48 0.36,21.62 -1.64,0.91 -1.97,0.97 -2.37,0.05 -0.82,-1.89 -1.12,-3.96 -1.88,-5.89 z"
   id="path42" />&#10;		<path
   class="st40"
   d="m 214.78,432.04 c 6.72,-4.62 14.67,-5.5 22.31,-7.35 13.28,-3.21 26.53,-6.54 39.78,-9.81 3.45,0.26 7.19,-0.83 10.06,2.14 0.71,0.85 0.63,1.66 -0.1,2.45 -2.31,-3.7 -5.72,-4.23 -9.56,-3.15 -20.06,5.69 -40.77,8.83 -60.55,15.57 -0.59,0.21 -1.29,0.11 -1.94,0.15 z"
   id="path43" />&#10;		<path
   class="st46"
   d="m 178.91,407.97 c -2.23,0.34 -3.25,-1.19 -3.65,-3.05 -0.61,-2.88 -0.72,-5.88 -2.89,-8.21 -1.20526,-1.59466 -2.93193,-3.87299 -1.57284,-4.41483 2.23092,-1.73288 2.31546,1.39291 3.49284,2.67483 2.77,2.29 5.58,4.56 8.1,7.11 1.2,1.22 0.96,3.06 0.11,4.63 -0.78,1.45 -2.17,1.24 -3.59,1.26 z"
   id="path51"
   sodipodi:nodetypes="cccccccc"
   style="enable-background:new 0 0 512 512" /><path
   class="st41"
   d="m 168.09,387.24 c 0.62,-0.18 1.25,-0.37 1.87,-0.55 0.86,1.8 -1.34,2.86 -1.1,4.51 -4.44,1.38 -8.77,2.83 -12.25,6.22 -1.92,1.87 -4.48,2.21 -6.86,0.54 -1.57,-1.1 -2.75,-2.61 -1.99,-4.67 1.06,-2.83 3.25,-3.94 6.26,-3.85 2.65,0.08 5.32,0.19 7.97,-0.11 2.21,-0.21 4.64,0.27 6.1,-2.09 z"
   id="path44" />&#10;		<path
   class="st42"
   d="m 162,389.32 c -2.53,1.25 -5.23,0.56 -7.83,0.55 -2.93,-0.01 -4.75,1.47 -5.81,3.86 -0.73,1.64 0.57,2.92 1.9,3.63 2.35,1.27 4.66,0.82 6.18,-1.36 3.12,-4.48 8.57,-3.76 12.69,-5.97 0.28,-0.4 0.59,-0.43 0.93,-0.09 2.65,0.39 5.47,-0.87 7.99,0.79 -2.05,0.74 -4.77,-0.05 -6.01,2.63 -0.14,0.3 -0.96,0.63 -1.2,0.49 -5.34,-3.24 -8.16,1.18 -11.52,3.8 -2.18,1.7 -4.5,2.93 -7.31,2.39 -3.38,-0.64 -5.3,-2.78 -5.1,-6.27 0.18,-3.08 2.05,-4.88 5.21,-4.8 3.28,0.1 6.61,-0.52 9.88,0.35 z"
   id="path45" />&#10;		<path
   class="st43"
   d="m 59.08,281.99 c -0.04,-2.12 -1.42,-1.16 -2.43,-1.05 2.69,-5.99 4.92,-12.14 6.23,-18.58 0.61,-3.01 0.58,-5.91 -1.85,-8.25 1.12,-0.75 1.71,-2.73 3.62,-1.66 1.34,0.76 1.4,2.11 1.41,3.47 0.11,9.33 -2.88,17.85 -6.98,26.07 z"
   id="path46" />&#10;		<path
   class="st43"
   d="m 46.03,300.93 c 1.67,-2.34 3.69,-4.31 6.05,-5.94 3.82,0.46 7.41,-1.75 11.33,-0.77 8.07,2 14.45,10.73 14.57,20.25 -0.63,-1.51 -1.3,-3 -1.89,-4.53 -4.9,-12.79 -15.95,-17.52 -28.94,-8.95 -0.39,0.43 -0.77,0.41 -1.12,-0.06 z"
   id="path47" />&#10;		<path
   class="st12"
   d="m 387.92,172.06 c 1.49,1.39 1.48,3.42 2.21,5.13 0.4,0.93 0.91,1.77 2.04,0.71 2.4,3.55 4.79,7.09 8.38,9.61 4.56,3.2 9.47,5.17 15.18,4.44 1.46,-0.55 2.91,-0.71 4.34,0.11 -14.28,5.68 -30.98,-4.71 -32.15,-20 z"
   id="path48" />&#10;		<path
   class="st44"
   d="m 286.84,419.47 c 0.03,-0.82 0.07,-1.64 0.1,-2.45 3.98,-0.44 4.39,2.16 3.96,5.01 -0.26,1.73 -1.22,3.35 -1.87,5.03 -4.69,4.94 -9.38,9.88 -14.07,14.81 -3.21,-1.44 -0.06,-2.7 0.12,-4.04 2.36,-2.31 4.74,-4.58 7.06,-6.93 3.12,-3.16 5.54,-6.63 4.7,-11.43 z"
   id="path49" />&#10;		<path
   class="st45"
   d="m 46.03,300.93 c 0.37,0.02 0.75,0.04 1.12,0.06 -4.17,3.99 -6.27,9.16 -8.45,14.36 -2.49,5.95 -8.8,8 -13.17,4.64 4.1,-0.02 6.45,-2.79 8.86,-5.55 3.91,-4.48 6.56,-10.04 11.64,-13.51 z"
   id="path50" />&#10;		&#10;		<path
   class="st47"
   d="m 124.06,368.98 c 3.5,0.22 5.5,2.93 7.99,4.82 -3.12,0.43 -1.23,2.3 -0.97,3.59 0.39,1.92 0.66,3.84 -0.95,5.27 -0.95,0.85 -2.19,0.5 -3.16,-0.29 -1.66,-1.34 -2.41,-2.68 -1.26,-5.03 1.45,-2.95 -0.61,-5.65 -1.65,-8.36 z"
   id="path52" />&#10;		<path
   class="st5"
   d="m 261,99.12 c -4.61,1.71 -9.25,1.28 -13.85,0.09 -3.16,-0.82 -6.25,-1.9 -9.4,-2.74 -2.39,-0.64 -4.19,0.07 -4.8,2.72 -1.69,-0.11 -3,-0.88 -3.94,-2.28 0,-1.62 3.18,-2.48 1.09,-4.6 5.7,-0.51 10.04,3.43 15.22,4.74 2.23,0.56 4.38,0.96 6.63,1.09 2.91,1.26 6.16,-0.47 9.05,0.98 z"
   id="path53" />&#10;		<path
   class="st48"
   d="m 436.86,182.91 c 0.29,0.01 0.58,0.02 0.88,0.03 -8.84,10.9 -13.93,23.48 -16.73,37.1 -0.15,0.75 -0.69,1.41 -1.05,2.12 -0.04,-0.73 -0.08,-1.46 -0.12,-2.19 2.25,-11.57 5.84,-22.59 12.71,-32.35 1.26,-1.78 2.56,-3.44 4.31,-4.71 z"
   id="path54" />&#10;		<path
   class="st49"
   d="m 136.07,375.95 c 1.93,-1.2 3.86,-1.31 5.81,-0.04 1.25,2.05 3.6,3.49 3.25,6.43 -0.17,1.4 -0.04,2.68 -2.02,2.62 -1.4,-0.04 -2.84,-0.01 -2.89,-1.86 -0.11,-3.16 -2.37,-5.01 -4.15,-7.15 z"
   id="path55" />&#10;		<path
   class="st50"
   d="m 343.01,111.02 c -1.13,0.01 -2.35,0.25 -2.98,-1.11 2.99,-2.13 -0.12,-3.06 -0.94,-4.3 -1.36,-2.05 -5.12,-3.24 -2.14,-6.67 1.98,0.3 3.95,1.24 5.93,0.05 2.43,2.36 0.55,5.4 1.24,8.03 -0.84,1.21 -1.31,2.51 -1.11,4 z"
   id="path56" />&#10;		<path
   class="st51"
   d="m 465.14,149.99 c -2.87,-0.45 -4.09,-2.18 -3.99,-4.52 0.1,-2.28 1.69,-3.58 4.03,-3.37 2.2,0.2 3.75,1.46 3.78,3.8 0.03,2.65 -1.82,3.62 -3.82,4.09 z"
   id="path57" />&#10;		<path
   class="st52"
   d="m 325.57,473.95 c 6.67,-0.14 8.2,-1.81 8.46,-8.42 0.14,-3.51 -1.01,-7.15 0.8,-10.54 -0.03,4.12 1.52,8.01 1.27,12.23 -0.39,6.82 -3.88,9.24 -10.53,6.73 z"
   id="path58" />&#10;		<path
   class="st53"
   d="m 338.07,447.46 c 8.94,-6.33 6.81,-15.76 6.89,-24.57 1.31,-2.56 0.22,-6.05 3.13,-7.98 -1.48,6.09 -2.8,12.26 -1.97,18.54 0.92,6.88 -1.62,11.5 -8.05,14.01 z"
   id="path59" />&#10;		<path
   class="st54"
   d="m 292.04,31.66 c 0.46,3.2 -2.6,3.03 -3.95,3.12 -1.78,0.12 -2.2,-2.17 -2.16,-3.81 0.05,-1.96 1.42,-3.04 3.28,-3.08 2.52,-0.05 2.88,1.77 2.83,3.77 z"
   id="path60" />&#10;		<path
   class="st55"
   d="m 158.96,444.14 c -0.21,-2.32 1.48,-2.9 3.08,-3.14 1.98,-0.29 2.99,0.78 3.06,2.87 0.06,1.92 -0.49,3.51 -2.52,3.46 -1.81,-0.04 -3.45,-0.99 -3.62,-3.19 z"
   id="path61" />&#10;		<path
   class="st56"
   d="m 398.1,373.92 c -0.38,-0.01 -0.76,-0.02 -1.13,-0.03 -2.72,-8.66 -2.94,-17.33 -0.07,-26.01 0.61,6.59 -2.07,13.14 -0.19,19.76 0.57,2.06 0.93,4.19 1.39,6.28 z"
   id="path62" />&#10;		<path
   class="st57"
   d="m 89.93,121.01 c -3.089962,-6.50114 0.01193,-14.9945 -3.51997,-21.060174 4.177959,2.816984 4.177952,8.374494 3.74997,11.650174 -1.015956,3.17472 -0.659977,5.47153 -0.23,9.41 z"
   id="path63"
   sodipodi:nodetypes="cccc" />&#10;		<path
   class="st58"
   d="m 408.09,311.18 c -0.29,-0.37 -0.92,-0.9 -0.83,-1.09 2.28,-4.92 3.09,-10.42 5.96,-15.09 -1.05,5.59 -2.29,11.14 -5.13,16.18 z"
   id="path64" />&#10;		<path
   class="st59"
   d="m 35.65,269.06 c 3.28,1.54 5.86,1.11 7.65,-2.39 0.8,-1.58 2.15,-2.81 3.76,-3.68 -0.24,5.76 -4.84,7.17 -9.01,9.01 -1.25,-0.62 -1.95,-1.68 -2.4,-2.94 z"
   id="path65" />&#10;		<path
   class="st60"
   d="m 213.23,107.17 c -0.11,2.29 -0.22,4.59 -0.33,6.88 -1.21,-7.02 -1.91,-14.03 0.33,-20.99 0,4.7 0,9.4 0,14.11 z"
   id="path66" />&#10;		<path
   class="st61"
   d="m 230.09,92.31 c 0.98,1.15 3.8,0.53 3.37,2.72 -0.43,2.16 -3.37,0.19 -4.46,1.88 -1.68,-2.02 -1.09,-3.49 1.09,-4.6 z"
   id="path67" />&#10;		<path
   class="st62"
   d="m 342.89,99 c -2,2.14 -3.99,4.37 -5.93,-0.05 1.99,-2.58 3.97,-2.61 5.93,0.05 z"
   id="path68" />&#10;		<path
   class="st63"
   d="m 424.99,253.55 c 1.47,-4.47 3.87,-8 8.98,-8.73 -3,2.9 -5.99,5.81 -8.98,8.73 z"
   id="path69" />&#10;		<path
   class="st16"
   d="m 72.25,206.02 c 1.94,-0.67 3.88,-1.34 5.82,-2 -0.28,3.75 -2.35,4.9 -5.83,4 0,-0.67 0,-1.34 0.01,-2 z"
   id="path70" />&#10;		<path
   class="st64"
   d="m 169.2,105.2 c -4.1,1.47 -8.21,1.45 -12.33,0.04 4.11,-0.01 8.22,-0.02 12.33,-0.04 z"
   id="path71" />&#10;		<path
   class="st65"
   d="m 420.06,192.05 c -1.44,-0.04 -2.89,-0.07 -4.34,-0.11 3.11,-1 6.23,-2 9.34,-3 -1.08,1.97 -2.98,2.64 -5,3.11 z"
   id="path72" />&#10;		<path
   class="st20"
   d="m 343.14,418.91 c 0.67,3.17 -0.84,5.3 -3.32,6.97 1.11,-2.32 2.22,-4.64 3.32,-6.97 z"
   id="path73" />&#10;		&#10;		<path
   class="st67"
   d="m 261,99.12 c -3.01,-0.46 -6.21,0.89 -9.06,-0.99 3.36,-0.02 6.72,-0.04 10.08,-0.06 -0.09,0.28 -0.18,0.56 -0.29,0.84 -0.27,0 -0.51,0.07 -0.73,0.21 z"
   id="path75" />&#10;		<path
   class="st68"
   d="m 128.9,217.93 c -0.65,0.35 -1.3,0.7 -1.95,1.05 -3.88,1.93 -6.96,4.7 -9.71,8.1 -2.78,3.44 -6.23,6.34 -10.31,10.41 0.94,-5.59 3.7,-8.97 5.27,-12.83 0.61,-1.48 2.28,-2.89 1.3,-4.57 -2.31,-3.93 -0.2,-7.09 1.64,-10.15 4.59,-7.64 5.64,-16.9 11.38,-24.04 2.4,-2.99 0.34,-4.88 -2.71,-5.74 -1.9,-0.53 -4,-0.54 -5.78,-1.32 -5.79,-2.53 -6.09,-6.3 -1.38,-10.24 3.3,-2.75 6.6,-5.74 9.03,-9.23 2.54,-3.65 5.58,-6.43 9.18,-8.83 4.24,-2.84 8.49,-5.47 11.02,-10.44 1.4,-2.74 4.7,-4.55 7.27,-6.64 11.04,-8.96 21.81,-18.38 35.95,-22.36 -1.09,5.24 -5.23,8.15 -9.34,10.24 -8.06,4.1 -14.85,9.93 -23.34,15.43 4.3,-0.19 7.42,-1.16 10.6,-1.31 1.44,-0.07 3.27,-0.82 3.95,0.97 0.61,1.62 -0.86,2.8 -2.04,3.66 -5.59,4.09 -9.46,9.73 -14.28,15.5 2.58,-0.08 4.21,-1.11 5.92,-1.76 4.37,-1.67 8.73,-3.32 13.55,-2.3 0.65,0.14 1.36,0.15 1.98,-0.04 12.04,-3.61 24.76,-2.49 36.92,-5.28 0.81,-0.19 1.65,-0.25 2.44,-0.5 1.36,-0.42 3.51,0.01 3.79,-1.72 0.29,-1.76 -1.85,-2 -3.06,-2.76 -4.63,-2.91 -9.54,-5.45 -12.49,-10.41 -1.65,-2.78 -2.33,-5.47 -0.46,-8.41 0.81,-1.27 1.24,-2.7 1.42,-4.22 0.62,-5.36 -0.21,-6.61 -5.5,-8.02 -0.81,-0.22 -1.6,-0.44 -2.14,-1.14 1.9,-2.96 4.85,-3.56 7.84,-2.72 3.36,0.95 2.21,4.14 2.08,6.38 -0.36,6.1 1.44,11.38 4.97,16.24 0.83,1.15 1.6,2.09 3.1,2.11 4.11,1.82 6.43,6.14 10.73,7.7 2.21,2.14 5.57,4.08 4.18,7.68 -1.45,3.76 -4.68,5.88 -8.98,5.87 -1.83,0 -3.61,0.28 -5.34,0.95 -5.19,2.01 -5.54,2.88 -3.95,8.18 1,3.33 0.43,6.86 0.95,10.29 0.35,2.29 -1.97,3.19 -3.88,3.88 -4.06,1.46 -8.08,2.98 -11.22,6.12 -5.08,2.72 -10.96,3.3 -16.04,6.02 -16.94,7.11 -32.68,16.32 -47.41,27.28 -1.58,1.2 -3.15,2.43 -5.15,2.92 z"
   id="path76" />&#10;		<path
   class="st69"
   d="m 197.02,109.03 c 9.72,-0.92 10.76,3.8 7.91,12.8 -1.67,5.26 -1.4,9.38 3.43,12.7 3.24,2.23 6.15,5.03 10.04,6.31 1.73,0.57 3.6,1.67 3.37,3.81 -0.21,1.98 -2.43,1.51 -3.7,1.79 -8.73,1.87 -17.52,3.47 -26.48,3.58 -2.34,0.03 -4.58,0.39 -6.88,0.86 -4.62,0.93 -9.01,2.25 -14.1,1.64 -5.08,-0.61 -10.12,2.63 -15,4.69 -0.9,0.38 -1.75,1.04 -3.36,0.06 4.99,-7.85 11.09,-14.66 17.97,-21.09 -3.85,0.62 -7.71,1.22 -11.55,1.89 -1.47,0.26 -3.31,1.02 -3.99,-0.7 -0.78,-1.99 1.58,-2.07 2.63,-2.93 9.6,-7.84 21.65,-12.2 30.27,-21.42 0.56,-0.6 1.04,-1.28 1.56,-1.93 2.6,-0.68 5.24,-1.37 7.88,-2.06 z"
   id="path77" />&#10;		<path
   class="st70"
   d="m 225.01,139.07 c -4.76,-0.89 -7.16,-4.73 -10,-8.02 0.53,-2.86 1.85,-1.6 2.97,-0.5 4.32,4.24 9.28,7.19 15.24,8.65 4.49,1.1 9.16,0.22 13.61,1.74 1.98,0.68 3.46,1.19 2.84,3.64 -0.26,1.04 -1.35,2.33 0.23,2.99 1.23,0.51 1.87,-1.13 2.93,-1.52 -3.12,7.96 -3.1,7.86 5.86,10.11 2.12,0.53 4.13,1.07 6.3,0.7 0.94,-0.67 1.99,-1.08 3.15,-1.14 3.81,-0.29 7.69,0.58 11.43,-0.73 2.01,-0.7 3.71,-2.17 5.76,-2.63 3.29,-0.73 6.84,-1.81 8.95,2.3 -2.18,6.35 -5.15,8.2 -11.28,6.97 -1.48,-0.3 -2.96,-0.23 -4.45,-0.22 -3.42,0.01 -6.84,-0.08 -10.25,0.31 -4.67,-0.2 -9.32,-0.66 -13.7,-2.44 -1.68,-0.68 -3.2,-0.63 -4.76,0.17 -4.95,-0.64 -5.04,-4.43 -5.09,-8.08 -0.1,-7.03 -0.04,-7.03 -6.95,-7.93 -4.61,-0.46 -9.04,-1.41 -12.79,-4.37 z"
   id="path78" />&#10;		<path
   class="st16"
   d="m 121.06,146.05 c 4.4,-2.48 8.71,-5.06 12.01,-9 1.09,-1.94 1.85,-4.41 4.96,-3.01 -2.69,5.26 -7.24,8.89 -11.37,12.86 -5.92,5.7 -11.03,12.35 -18.6,16.13 -7.65,2.29 -13.59,6.81 -17.85,13.59 -1.46,2.32 -2.5,5.03 -5.15,6.4 0.77,-8.94 5.72,-15.54 11.93,-21.48 1.64,-1.57 3.23,-2.7 5.65,-2.53 9.61,0.66 14.48,-5.51 18.42,-12.96 z"
   id="path79" />&#10;		<path
   class="st71"
   d="m 138.04,134.04 c -2.32,-0.09 -3.14,2.29 -4.96,3.01 -0.34,-0.34 -0.68,-0.67 -1.03,-1.01 4.88,-5.25 9.7,-10.54 12.97,-17.01 3.82,-1.64 5.97,-5.49 9.8,-7.22 3.4,-1.54 6.65,-2.76 10.23,-0.75 -10.41,6.01 -18.41,14.85 -27.01,22.98 z"
   id="path80" />&#10;		<path
   class="st72"
   d="m 165.04,111.06 c -7.25,-0.78 -12.6,2.56 -16.95,7.94 -1.11,1.37 -2.01,3.22 -3.07,0.03 -0.25,-3.42 1.76,-6.17 2.97,-9.09 0.77,-1.85 2.53,-3.21 5.23,-2.43 2.15,0.61 4.52,0.43 6.79,0.61 1.29,1.45 3.03,0.92 4.59,0.93 1.58,0.01 2.12,0.49 1.43,2 -0.33,0 -0.66,0.01 -0.99,0.01 z"
   id="path81" />&#10;		<path
   class="st73"
   d="m 126.98,219.83 c -1.63,4.42 -3.58,8.52 -9.05,9.13 2.6,-3.46 5.72,-6.39 9.05,-9.13 z"
   id="path82" />&#10;		<path
   class="st74"
   d="m 229.88,135.18 c 6.03,0.52 12.18,-1.47 18.13,0.86 -6.02,-0.88 -12.18,1.35 -18.13,-0.86 z"
   id="path83" />&#10;		<path
   class="st75"
   d="m 215.02,395.93 c -6.93,-6.97 -16.06,-7.11 -24.93,-8.05 -2.42,-1.66 -0.81,-2.58 0.76,-2.85 9.99,-1.71 19.52,-1.28 27.4,6.34 5.76,5.58 13.25,6.36 20.7,7.13 1.1,0.11 2.53,-0.07 2.83,-1.47 0.35,-1.65 -1.06,-2.29 -2.24,-2.86 -2.42,-1.15 -5.04,-1.61 -7.65,-2.1 -2.15,-0.4 -4.7,-0.98 -4.85,-3.5 -0.16,-2.64 2.5,-3.16 4.52,-3.84 1.42,-0.48 2.82,-0.99 4.22,-1.5 8.79,-0.78 17.38,-2.36 25.91,-4.85 11.03,-3.23 20.9,-8.31 30.11,-15.14 6.17,-4.58 13.47,-7.18 20.97,-9 1.14,-0.28 2.45,-0.62 3.44,-0.09 5.46,2.93 9.92,0.03 14.49,-2.3 3.26,-1.66 6.37,-3.62 9.87,-4.78 1.58,-0.53 3.25,-1.2 4.47,0.65 1.03,1.56 0.16,2.81 -0.73,4.08 -5.02,7.15 -11.28,13.06 -18.31,18.18 -8.92,6.4 -19.14,10.87 -27.21,18.67 7.78,-2.8 14.63,-7.54 22.63,-9.95 -4.79,5.52 -11.76,8.01 -17.44,12.26 -0.8,0.02 -1.56,0.12 -2,0.92 -8.86,4.04 -18.12,7.09 -27.01,11.06 -1.6,-0.13 -2.8,0.69 -4.11,1.48 -7.41,4.49 -15.61,6.11 -24.15,6.56 -5.63,0.3 -9.73,-2.7 -13.58,-6.01 -2.17,-1.86 -3.98,-3.95 -7.07,-4.06 -4.36,-0.2 -7.53,-2.97 -11.04,-4.98 z"
   id="path84" />&#10;		<path
   class="st23"
   d="m 411.85,286.87 c -1.85,8.65 -3.54,17.35 -7.18,25.5 -0.73,1.63 -1.22,3.43 -2.71,4.63 -1.32,0.97 -1.45,2.53 -2.01,3.9 -0.66,1.62 -0.66,4.04 -2.76,4.33 -2.61,0.36 -1.78,-2.73 -3.28,-4.07 -2.05,0.46 -3,2.34 -3.87,3.96 -8.35,15.65 -21.34,27.87 -31.14,42.46 -3.32,4.94 -7.45,9.25 -13.96,10.46 -2.87,0.53 -5.4,2.48 -7.99,4 -1.5,0.87 -2.99,2.34 -4.97,0.94 3.85,-4.09 6.55,-9.83 13.66,-9.16 1.38,0.13 2.24,-1.29 3.18,-2.22 2.25,-2.21 4.31,-4.65 6.72,-6.65 7.97,-6.6 11.16,-15.59 13.55,-25.24 2.11,-8.51 6.02,-16.05 12.12,-22.79 7.29,-8.03 13.55,-17.04 15.41,-28.26 0.41,-2.5 0.29,-4.32 -2.7,-4.68 -1.28,-1.48 -0.84,-3.13 -0.39,-4.72 4.24,-14.85 5,-30.07 4.94,-45.38 -0.02,-4.82 0.2,-9.64 -0.05,-14.45 -0.44,-8.36 1.15,-16.18 5.49,-23.39 3.27,1.14 6.68,1.01 10.07,1.02 -2.38,3.39 -1.98,5.99 2.09,7.64 2.64,1.07 3.05,3 2.43,5.68 -0.95,4.11 -2.38,8.21 -1.6,12.56 -0.09,1.41 0.5,2.98 -0.97,4.05 -1.58,5.44 -0.75,11.08 -1.18,16.61 -0.93,12.02 -3.76,23.92 -2.78,36.07 0.21,2.45 -1.98,4.79 -0.12,7.2 z"
   id="path85" />&#10;		<path
   class="st76"
   d="m 370.93,300.92 c -3.56,5.73 -7.28,11.36 -10.64,17.21 -4.47,7.79 -11.84,12.97 -17.34,19.82 -7.57,6.97 -15.98,12.09 -26.53,13.22 -6.76,0.72 -8.65,-0.13 -11.21,-6.69 0.48,-3.07 2.46,-5.37 4.04,-7.88 2.77,-2.62 5.23,-5.42 5.67,-9.45 0.76,-3.47 3.16,-5.17 6.38,-6.15 4.09,-1.24 8.11,-2.7 12.17,-4.06 14.85,-5.05 24.58,-16.04 32.87,-28.59 4.42,-6.69 8.02,-13.8 9.95,-21.67 0.47,-1.92 0.94,-3.97 2.21,-5.53 1.84,-2.28 3.55,-2.51 4.46,0.85 0.07,0.78 0,1.55 -0.17,2.31 -0.92,3.77 -1.58,7.57 -1.7,11.45 -1.53,7.01 -4.07,13.67 -7.08,20.16 -0.99,1.69 -1.18,3.87 -3.08,5 z"
   id="path86" />&#10;		<path
   class="st77"
   d="m 403.92,196.04 c 1.22,1.61 0.76,3.19 -0.32,4.55 -3.21,4.02 -3.47,8.82 -3.6,13.6 -0.16,5.8 -0.12,11.61 -0.02,17.41 0.3,17.73 -1.02,35.27 -6.06,52.38 -2.71,5.17 -4.72,10.75 -8.97,15 -1.17,1.59 -2.23,3.26 -3.66,4.63 -1.32,1.26 -2.66,2.74 -4.67,1.38 -1.84,-1.24 -1.77,-3.14 -0.96,-4.86 2.19,-4.62 3.23,-9.66 5.27,-14.32 1.88,-2.66 2.95,-5.59 2.96,-8.88 0.06,-0.49 0.17,-0.97 0.3,-1.45 1.83,-7.07 3.12,-14.24 4.07,-21.48 0.51,-3.9 -0.6,-7.56 -1.65,-11.22 -0.41,-1.43 -1.31,-2.75 -1.45,-4.22 -0.29,-3.11 -0.91,-5.72 -4.93,-5.26 -1.24,-4.68 -0.32,-9.43 0.88,-13.75 3.99,-14.41 3.77,-28.86 1.84,-43.45 -0.32,-2.44 -0.98,-4.96 1.01,-7.09 1.58,0.88 0.36,3.14 1.97,4.01 0.93,8.65 4.93,15.42 12.55,19.73 1.85,1.06 2.97,3.31 5.44,3.29 z"
   id="path87" />&#10;		<path
   class="st78"
   d="m 331.98,382.97 c 4.42,-1.14 7.62,-5.03 11.98,-5.88 8.61,-1.7 12.8,-8.26 17.17,-14.59 4.35,-6.3 8.86,-12.36 14.39,-17.73 5.28,-5.12 7.42,-12.52 12.07,-18.18 0.73,-0.89 1.32,-1.91 1.94,-2.89 1.32,-2.1 2.69,-5.09 5.13,-4.85 2.47,0.24 0.36,3.93 2.56,6.12 1,-2.45 1.85,-4.64 2.79,-6.78 0.34,-0.78 0.45,-2.2 1.95,-1.19 -0.35,1.99 -0.7,3.97 -1.05,5.96 -1.75,2.02 -0.9,5.14 -2.95,7.03 -2.85,4.28 -3.53,9.6 -6.72,13.76 -1.22,1.58 -2.14,3.35 -4,4.29 -11.35,5.76 -16.41,16.76 -22.48,26.92 -0.16,0.26 -0.02,0.63 0.14,0.94 -4.52,7.87 -9.04,15.75 -13.65,23.77 -2.42,-1.39 -3.24,-4.57 -6.26,-4.73 -0.03,-0.32 -0.05,-0.63 -0.06,-0.95 -1.95,-2.79 -4.76,-2.45 -7.55,-2 -5.53,0.89 -10.37,3.41 -14.93,6.53 -1.36,0.93 -2.57,2.18 -4.45,1.45 -0.72,-6.33 2.66,-10.14 7.83,-12.97 2.14,-1.18 4.11,-2.68 6.15,-4.03 z"
   id="path88" />&#10;		<path
   class="st79"
   d="m 305.97,343.96 c 3.9,6.97 4.41,6.79 11.81,5.71 8,-1.16 14.53,-4.9 20.86,-9.47 1.28,-0.92 2.46,-2.31 4.31,-2.26 -1.7,2.4 -3.4,4.81 -5.6,7.91 4.58,0.48 7.61,-1.61 10.46,-4.22 0.71,-0.65 1.44,-1.72 2.48,-1.08 0.94,0.58 0.82,1.82 0.39,2.71 -5.26,10.77 -13.42,19.04 -22.82,26.2 -0.48,0.36 -1.25,0.34 -1.89,0.5 4.68,-5.81 11.62,-9.42 15.49,-16.01 1.11,-1.89 4.18,-3.72 2.7,-5.77 -1.83,-2.53 -4.08,0.52 -6.02,1.29 -2.45,0.97 -4.59,2.75 -7.04,3.7 -4.8,1.86 -9.3,6.34 -15.07,2.06 -0.66,-0.49 -2.24,0.06 -3.33,0.37 -8.32,2.37 -16.15,5.51 -23.19,10.91 -11.94,9.17 -26.1,13.35 -40.63,16.47 -4.28,0.92 -8.55,0.99 -12.87,1 -0.16,-3.23 2.45,-3.52 4.57,-4.08 2.22,-0.59 4.52,-0.86 6.57,-1.98 7.28,-2.28 14.46,-4.88 21.77,-7.01 13.34,-3.89 23.21,-12.46 32.05,-22.64 1.44,-1.66 2.14,-4.28 5,-4.31 z"
   id="path89" />&#10;		<path
   class="st23"
   d="m 381.96,286 c -1.74,5 -2.76,10.25 -5.43,14.92 -0.73,1.28 -0.75,2.63 0.66,3.49 1.36,0.84 2.11,-0.39 2.95,-1.12 1.62,-1.42 3.21,-2.87 4.81,-4.31 -2.05,5.42 -5.99,9.67 -9.07,14.44 -0.87,1.35 -2.62,3.05 -4.53,1.3 -1.56,-1.43 -3.08,-3.36 -1.84,-5.66 1.42,-2.62 1.58,-5.32 1.42,-8.14 0.46,-1.74 0.68,-3.56 2.01,-4.94 4.56,-5.98 5.63,-13.26 7.53,-20.24 0.17,-2.36 0.12,-4.76 1.4,-6.9 4.06,1.08 3.95,3.95 3.09,7.15 0,0.33 -0.01,0.66 -0.01,0.99 -0.7,3.11 -1.67,6.12 -2.99,9.02 z"
   id="path90" />&#10;		<path
   class="st80"
   d="m 318.01,399.96 c 6.18,-3.66 11.93,-8.06 19.33,-9.38 3.02,-0.54 5.47,0.14 7.94,1.34 1.14,0.55 1.88,1.72 -0.34,2.07 -13.35,-1.91 -22.98,5.94 -33.05,12.84 1.27,-3.16 3.79,-4.93 6.12,-6.87 z"
   id="path91" />&#10;		<path
   class="st81"
   d="m 268.08,156.76 c -1.03,0.03 -2.06,0.06 -3.09,0.09 3.64,-3.73 1.96,-8.94 3.65,-13.22 0.68,-1.72 -0.22,-2.78 -1.69,-3.62 -1.43,-0.81 -2.83,-1.7 -4.12,-2.71 -0.73,-0.57 -1.73,-1.29 -1.26,-2.43 0.48,-1.17 1.69,-0.77 2.63,-0.82 8.45,-0.48 16.35,1.54 24.02,4.97 1.38,0.62 4.21,4.04 4.77,-0.99 0.15,0.07 0.35,0.09 0.45,0.2 9.03,10.15 22.46,10.96 33.88,16.05 3.04,1.36 5.62,0.06 8.19,-0.42 6.94,-1.3 13.85,-0.68 20.78,-0.71 -0.64,2.45 -3.02,2.95 -4.76,4.06 -9.58,6.1 -14.85,14.4 -14.31,26.12 0.17,3.57 0.88,7.32 -0.92,10.78 -2.07,1.5 -4.13,0.52 -6.1,-0.17 -6.18,-2.18 -12.23,-4.72 -18.42,-6.87 -6.54,-3.9 -13.88,-5.79 -20.98,-8.27 -6.49,-2.82 -13.34,-4.91 -19.24,-8.94 -3.05,-2.08 -5.94,-4.49 -3.71,-8.9 3.5,-1.89 7.21,-0.76 10.84,-0.79 1.56,0.55 3.21,0.73 4.73,1.42 7.75,3.53 10.08,2.1 10.44,-6.33 -2.57,-3.41 -5.84,-2.71 -8.98,-1.25 -1.56,0.73 -2.97,1.76 -4.71,2.08 -3.98,1.08 -8.09,-0.1 -12.09,0.67 z"
   id="path92" />&#10;		<path
   class="st82"
   d="m 383.97,169.02 c 0.66,7.03 1.6,14.04 1.91,21.08 0.44,10.06 -0.63,19.95 -3.52,29.72 -1.32,4.48 -0.99,9.45 -1.4,14.19 2.21,3.75 -0.2,7.57 0.19,11.34 -2.64,14.58 -6.21,28.84 -14.27,41.56 -7.18,11.32 -16.55,20.2 -28.96,25.59 -1.62,0.7 -3.58,2.28 -5.2,-0.21 0.22,-1.27 1.15,-1.99 2.11,-2.65 15.5,-10.59 24.93,-25.04 27.87,-43.64 0.13,-0.82 0.37,-1.62 0.57,-2.44 0.67,-13.16 0.09,-26.31 0.3,-39.46 0.05,-3.16 -0.24,-6.33 0.27,-9.47 1.37,-3.35 3.01,-1.48 4.4,-0.09 1.63,1.63 2.96,3.62 5.54,3.85 1.82,-0.5 4.28,-0.25 4.44,-2.95 0.14,-2.25 -1.65,-3.43 -3.35,-4.48 -2.26,-1.39 -4.79,-2.08 -7.31,-2.8 -2.34,-0.67 -4.36,-1.65 -4.03,-4.67 0.1,-15.26 -0.01,-30.51 0.06,-45.75 0.01,-2.28 -0.39,-4.69 1.36,-6.64 1.73,-1.32 2.66,0.78 4.04,0.94 5.44,8.67 5.17,18.94 7.95,28.36 0.68,2.31 1.05,4.71 1.8,8.22 1.62,-3.16 1.2,-5.29 0.8,-7.48 -1.19,-6.49 -2.32,-12.99 -3.41,-19.5 -0.28,-1.67 -0.42,-3.5 2.13,-3.54 2.01,-0.03 4.19,-0.22 4.61,2.56 0.41,2.78 0.73,5.57 1.1,8.36 z"
   id="path93" />&#10;		<path
   class="st83"
   d="m 282.73,107.01 c 16.31,2.3 31.52,3.48 45.33,10.61 2.21,1.14 4.4,2.33 6.54,3.59 2.72,1.62 4.92,4.42 8.65,1.01 1.51,-1.38 4.65,0.4 6.05,2 3.37,3.85 6.25,8.13 9.34,12.22 1.6,2.11 0.97,3.98 -0.5,5.86 -1.56,1.99 -3.21,1.64 -5.28,0.76 -2.26,-0.95 -3.61,-2.84 -5.39,-4.29 -9.65,-7.85 -20.86,-12.83 -32.51,-16.61 -10.33,-3.35 -19.85,-8.37 -29.74,-12.62 -0.67,-0.26 -1.1,-1.07 -2.49,-2.53 z"
   id="path94" />&#10;		<path
   class="st84"
   d="m 335.86,194.16 c 0.02,-3.14 0.25,-6.3 0.03,-9.42 -1.12,-15.68 7.1,-25.25 20.4,-31.58 2.54,-0.68 5.08,-1.37 7.62,-2.06 1.03,1.41 0.36,3 0.5,4.51 -0.58,2.14 -2.36,3.1 -4.07,4.15 -3.12,1.91 -6.14,3.95 -9.03,6.22 -8.29,6.5 -11.41,15.61 -13.09,25.47 -0.2,1.14 -0.15,2.33 -0.85,3.34 -0.87,0.67 -1.32,0.33 -1.51,-0.63 z"
   id="path95" />&#10;		<path
   class="st85"
   d="m 363.82,156.16 c 0.03,-1.68 0.06,-3.37 0.08,-5.05 0.34,0 0.68,-0.01 1.03,-0.01 0,16.28 0.03,32.56 -0.01,48.83 0,1.77 0.55,3.67 -0.72,5.29 -0.25,-0.21 -0.49,-0.42 -0.74,-0.62 -1.02,-1.63 -1.04,-3.46 -1.03,-5.28 0.02,-12.57 -0.19,-25.13 0.11,-37.69 -0.25,-1.99 0.39,-3.76 1.28,-5.47 z"
   id="path96" />&#10;		<path
   class="st86"
   d="m 364.02,265.07 c -2.94,20.63 -13.25,36.36 -31.22,47.01 -1.74,3.89 -5.69,3.91 -8.96,5.12 -1.99,0.73 -4.08,1.1 -6.11,1.7 -2.72,0.74 -5.61,-0.06 -8.3,0.99 -9.43,2.99 -18.13,-0.24 -26.56,-3.68 -14.24,-5.81 -25.91,-14.91 -33.27,-29.53 -12.2,19.85 -28.64,31.97 -51.74,33.68 -11.23,0.28 -22.46,-0.5 -33.65,0.45 -0.42,0.31 -0.82,0.64 -1.16,1.04 -1.46,7.04 -0.2,14.15 -0.71,21.2 -1.2,9.83 -6.58,16.59 -15.37,20.83 -2.2,1.03 -4.37,2.21 -6.94,1.87 -0.93,0.11 -1.86,0.22 -2.79,0.33 -1.82,0.5 -3.64,1 -3.69,-1.91 3.67,-5.13 2.87,-11.14 3.02,-16.85 0.42,-16.47 0.02,-32.95 0.08,-49.42 0.05,-14.66 0.49,-29.27 4.17,-43.59 6.51,-25.33 23.5,-40.23 49.71,-43.74 15.03,-2.01 29.12,0.6 42.59,7.3 1.63,0.81 3.36,1.47 5.16,1.84 0.53,0.1 1.03,0.29 1.51,0.53 4.3,4.07 7.61,8.79 9.44,14.48 0.58,2.34 1.46,4.69 4.07,5.16 3,0.53 4.21,-2.12 5.69,-4.07 9.51,-12.59 21.55,-21.44 37.03,-25.33 3.57,-0.9 7.31,-0.28 10.83,-1.46 1.5,-0.3 2.99,-0.69 4.54,-0.45 2.4,0.78 4.81,1.04 7.33,0.5 2.28,-0.49 4.67,-0.68 6.91,-0.08 7.46,2 13.68,-0.06 19.09,-5.29 0.85,-0.83 1.81,-1.44 3.05,-1.47 4.94,0.98 9.3,3.34 13.63,5.73 1.75,0.97 3.33,2.23 3.28,4.58 -0.5,15.72 -0.07,31.45 -0.24,47.16 -0.03,1.78 0.38,3.63 -0.42,5.37 z"
   id="path97" />&#10;		<path
   class="st73"
   d="m 128.9,217.93 c 8.75,-8.64 19.59,-14.21 30.03,-20.35 7.02,-4.13 14.1,-8.16 21.94,-10.63 6.83,-2.65 14.18,-3.04 21.19,-4.9 2.64,-0.7 5.29,-0.07 7.89,0.47 4.93,1.02 5.45,2.57 2.23,6.61 -5.47,6.86 -5.47,6.86 3.3,8.82 5.78,1.29 7.6,4.69 4.67,8.72 -3.61,0.55 -6.65,-1.42 -9.92,-2.33 -3.96,-1.1 -7.99,-1.75 -12.03,-2.36 -3.29,-0.91 -6.6,-0.88 -9.91,-0.12 -11.41,1.46 -21.98,5 -31.11,12.28 -11.38,9.06 -18.3,20.83 -21.52,34.91 -0.78,3.4 -1.21,6.87 -1.98,10.28 -0.53,12.04 -0.05,24.06 -0.25,36.09 -0.04,2.25 0.5,4.67 -1.39,6.55 -5.75,2.15 -4.97,-3.66 -5.67,-5.67 -3.08,-8.81 -5.34,-17.54 -13.69,-23.65 -4.41,-3.23 -4.44,-9.63 -4.3,-15.15 0.16,-6.63 4.3,-11.64 8.58,-15.5 6.58,-5.94 7.99,-14.71 13.45,-21.09 1.22,-1.43 -0.31,-2.31 -1.51,-2.98 z"
   id="path98" />&#10;		<path
   class="st87"
   d="m 132.04,301.98 c 0,-12.92 -0.01,-25.85 0.04,-38.77 0.01,-1.75 -0.62,-3.68 0.87,-5.21 1.75,1.53 1.48,3.63 1.48,5.59 0.04,31.81 0.02,63.62 0.04,95.43 0,2.7 -1,5.2 -1.19,7.85 -2.56,-3.07 -0.76,-6.67 -1.19,-10 -0.25,-1.95 -0.05,-3.95 -0.05,-6.23 -3.22,0.56 -5.51,3.09 -8.68,2.51 -0.49,-0.09 -1.5,0.49 -1.62,0.93 -1.94,7.1 -4.59,2.46 -6.7,0.3 -5.88,-5.99 -12.63,-8.36 -20.71,-5.32 -2.79,1.05 -4.08,0.23 -4.52,-2.51 -1.54,-9.64 -2.56,-19.28 1.31,-28.63 1.7,-4.11 2.68,-8.13 1.25,-12.55 -1.19,-3.67 0.33,-7.25 1.13,-10.73 0.41,-1.78 2.08,-3.74 4.37,-3.44 3.16,0.41 6.2,-0.86 9.36,2.59 9.1,9.94 14.57,22.29 23.04,32.57 0.28,0.34 0.7,0.57 1.76,1.42 0.01,-9.05 0.01,-17.42 0.01,-25.8 z"
   id="path99" />&#10;		<path
   class="st88"
   d="m 140.03,365.74 c 1.88,-0.76 3.76,-1.52 5.64,-2.27 7.29,2.91 14.73,4.87 22.71,4.33 2.97,-0.2 5.5,1.44 7.37,3.63 4.07,4.76 9.21,7.45 15.29,8.54 3.6,1.09 7.25,0.78 10.89,0.35 0.43,-0.17 0.87,-0.31 1.31,-0.45 2.81,-0.25 3.45,-4.35 6.71,-3.82 0.66,0.07 1.3,0.21 1.9,0.47 3.12,1.34 6.4,1.13 9.67,1.1 4.64,-0.04 2.27,-5.44 5.23,-6.73 0.45,-0.19 0.78101,-0.42565 1.25101,-0.28565 1.13,3.56 2.74899,6.84565 7.42899,5.54565 0.49,0.09 0.96,0.24 1.42,0.44 3.41,2.26 7.84,-0.37 11.15,2.35 -2.21,1.43 -4.73,1.72 -7.26,2.09 -1.94,0.28 -3.77,0.98 -4.72,2.95 -1.56,2.13 -4.24,1.6 -6.26,2.63 -0.88,0.45 -2.11,0.76 -2.08,1.88 0.03,1.1 1.21,1.54 2.14,1.81 3.32,0.94 6.8,1.08 10.07,2.42 2.34,0.96 4.45,1.94 3.97,4.81 -0.5,2.99 -3.18,2.71 -5.2,2.38 -8.21,-1.31 -16.38,-1.91 -22.77,-9 -4.31,-4.78 -11.24,-6.06 -17.87,-5.34 -2.48,0.27 -4.95,0.15 -7.41,0.46 -1.39,0.17 -0.72,1.13 -0.51,1.86 -5.4,-1.82 -10.78,0.29 -16.18,0.12 -1.52,-0.05 -2.88,0.69 -3.87,1.95 -0.31,0.02 -0.62,0.05 -0.93,0.09 -1.46,-1.56 1.22,-2.07 0.85,-3.35 1.79,-2.61 0.85,-4.64 -1.31,-6.47 -1.63,-1.38 -3.2,-2.83 -4.79,-4.25 3.96,-1.59 6.01,1.76 8.65,3.43 2.19,1.39 3.93,3.74 7.06,2.58 -6.65,-7.92 -13.48,-11.45 -22.6,-9.7 -5.34,-3.03 -11.49,-3.9 -16.95,-6.55 z"
   id="path100"
   sodipodi:nodetypes="cccccccccccccccccccccsccccccccccccccc" />&#10;		<path
   class="st89"
   d="m 133.28,366.86 c -0.08,-11.65 -0.2,-23.3 -0.23,-34.95 -0.06,-24.64 -0.07,-49.28 -0.1,-73.92 2.31,-29.65 23.84,-54.58 55.03,-57.13 3.36,-0.54 6.72,-0.53 10.08,0 7.63,0.34 14.73,2.9 21.89,5.21 1.99,0.64 4.81,0.34 4.29,3.81 -2.39,3.1 -5.43,1.76 -8.25,1.06 -11.51,-2.87 -22.93,-3.13 -34.48,0.12 -19.37,5.45 -33.03,17.23 -40.85,35.77 -3.58,8.49 -5.49,17.16 -5.34,26.59 0.43,27.6 0.16,55.22 0.15,82.83 0,2.66 0.2,5.35 -1.37,7.73 -0.02,2.3 1.94,1.61 3.13,2.09 -1.17,0.96 -2.61,0.65 -3.95,0.79 z"
   id="path101" />&#10;		<path
   class="st90"
   d="m 156.97,372.27 c 0.12,-1.64 0.99,-2.4 2.63,-2.2 6.49,0.79 12.74,2.17 17.39,7.34 0.66,0.74 1.43,1.39 2.2,2.02 1.15,0.92 4.25,0.64 3.11,2.78 -0.84,1.59 -3.65,2.34 -5.85,1.34 -1.48,-0.67 -2.77,-1.77 -4.08,-2.76 -2.64,-1.97 -5,-4.4 -8.51,-4.83 -2.3,-1.23 -4.6,-2.46 -6.89,-3.69 z"
   id="path102" />&#10;		<path
   class="st73"
   d="m 85.05,322.95 c 0,-0.32 0.02,-0.63 0.09,-0.94 2.04,4.42 0.6,9.08 0.88,13.62 0.26,4.12 0.04,8.27 0.03,12.41 -1.71,-4.17 -2.07,-8.56 -2.02,-13.01 -1,-4.14 -0.53,-8.16 1.02,-12.08 z"
   id="path103" />&#10;		<path
   class="st91"
   d="m 85.05,322.95 c -0.17,4.04 -1.49,7.98 -1.02,12.08 -1.38,-4.17 -2.06,-8.29 1.02,-12.08 z"
   id="path104" />&#10;		<path
   class="st92"
   d="m 75.06,104.97 c 0.05,-3.14 2.31,-4.34 4.78,-4.78 2.28,-0.41 3.36,1.23 3.18,3.4 -0.23,2.74 -1.05,5.77 -4.1,5.95 -2.01,0.12 -3.53,-2.18 -3.86,-4.57 z"
   id="path105" />&#10;		<path
   class="st2"
   d="m 274.95,402.92 c 8.22,-5.6 17.54,-8.51 27.01,-11.06 -8.26,5.52 -17.35,8.99 -27.01,11.06 z"
   id="path106" />&#10;		<path
   class="st93"
   d="m 215.02,395.93 c 3.8,1.36 7.62,2.69 11.01,4.96 -0.68,2.54 2.05,2.9 2.88,4.48 0.37,0.7 1.3,1.44 0.36,2.06 -0.47,0.31 -1.51,-0.26 -2.29,-0.43 -3.98,-3.69 -7.97,-7.38 -11.96,-11.07 z"
   id="path107" />&#10;		<path
   class="st63"
   d="m 411.85,286.87 c -0.89,-0.05 -1.81,-0.32 -1.68,-1.36 1.17,-9.61 0.01,-19.31 1.65,-28.95 1.63,-9.57 2.15,-19.33 3.17,-29.01 0.02,-0.15 0.05,-0.4 0.14,-0.43 0.26,-0.09 0.54,-0.08 0.82,-0.12 0.41,3.33 -1.07,6.84 0.97,10.01 0.16,4.37 3.24,6.62 6.73,7.6 4.05,1.14 3.22,1.72 1.1,4.54 -2.59,3.45 -5.61,7.04 -5.89,11.79 -3.92,8.22 -5.42,17.09 -7.01,25.93 z"
   id="path108" />&#10;		<path
   class="st63"
   d="m 416.91,222.96 c -2.52,-4.22 0.45,-8.27 0.55,-12.42 0.06,-2.64 0.6,-4.15 -2.7,-4.91 -2.13,-0.49 -4.08,-2.46 -4.59,-4.81 -0.63,-2.85 2.73,-2.28 3.82,-3.76 2.3,0.22 4.07,-1.12 5.98,-2.02 1.34,-0.63 2.81,-1.61 4.16,-0.6 1.63,1.22 0.22,2.76 -0.23,4.02 -2.86,8.02 -6.19,15.89 -6.99,24.5 z"
   id="path109" />&#10;		<path
   class="st94"
   d="m 364.9,375.9 c -0.77,-0.54 -1.16,-1.36 -0.7,-2.15 5.09,-8.67 9.34,-18.54 17.91,-23.95 8.03,-5.08 11.86,-11.71 13.9,-20.24 0.2,-0.82 0.17,-2.26 1.67,-1.46 0.33,0.17 0.19,1.24 0.27,1.89 -2.52,9.19 -3.59,18.65 -5.21,28.13 -2.57,-1.32 -3.41,-5.34 -6.89,-4.85 -3.71,0.52 -6.48,2.94 -8.9,5.71 -5.07,4.88 -8.35,11.04 -12.05,16.92 z"
   id="path110" />&#10;		<path
   class="st95"
   d="m 340,439.97 c -0.36,2.14 -1.54,4.18 -3.72,3.62 -2.35,-0.61 -2.54,-3.05 -1.94,-5.3 0.21,-0.79 0.42701,-2.00395 0.62701,-2.79395 1.61,-0.25 2.28299,-2.81605 4.01299,-1.61605 2,1.39 0.66,4.03 1.02,6.09 z"
   id="path111"
   sodipodi:nodetypes="cccccc" />&#10;		<path
   class="st96"
   d="m 290.29,56.13 c 2.07,0.24 2.92,1.52 3.02,3.05 0.12,1.75 -1.25,2.78 -2.81,2.76 -1.79,-0.03 -3.26,-1.23 -3.07,-3.12 0.15,-1.54 1.52,-2.45 2.86,-2.69 z"
   id="path112" />&#10;		<path
   class="st97"
   d="m 327.12,470.75 c -2.03,-0.82 -3.2,-1.98 -3.04,-3.87 0.24,-2.79 2.21,-4.51 4.58,-5.28 1.15,-0.37 2.63,0.91 2.02,2.6 -0.84,2.38 -0.98,5.25 -3.56,6.55 z"
   id="path113" />&#10;		<path
   class="st98"
   d="m 191.87,437.82 c -1.27,3.07 -3.74,4.22 -6.53,4.75 -1.35,0.26 -2.32,-0.83 -2.15,-2.05 0.46,-3.38 3.48,-4.09 6.03,-4.92 1.47,-0.47 2.02,1.2 2.65,2.22 z"
   id="path114" />&#10;		<path
   class="st1"
   d="m 225.01,139.07 c 4.35,0.91 8.42,3.02 12.99,3 4.26,1.75 5.7,5.41 6.16,9.54 0.49,4.41 2.49,7.15 6.82,8.81 5.05,1.95 8.42,6.38 7.37,9 -1.82,4.58 -6.15,3.8 -9.88,3.91 -5.46,0.16 -10.79,0.35 -16.22,-1.63 -3.74,-1.37 -8.2,-0.47 -12.29,1.16 2.74,0.98 2.79,1.09 5.23,0.08 3.36,-1.39 6.52,-1.91 10.07,-0.27 2.52,1.16 5.45,1.22 8.32,1.07 9.74,-0.5 19.29,0.42 28.36,4.36 1.53,0.66 3.17,1.1 4.27,2.47 1.18,1.48 1.25,2.71 -0.89,3.34 -1.18,0.22 -2.35,0.1 -3.45,-0.28 -13.96,-4.9 -28.45,-4.27 -42.89,-4.13 -9,-0.31 -17.93,0.31 -26.79,1.98 -1.73,0.33 -3.6,1.05 -5.19,-0.5 2.75,-4.03 7.27,-5.06 11.43,-6.57 2.79,-1.01 3.79,-1.67 2.64,-5.28 -1.16,-3.62 0.28,-7.96 -2.83,-11.39 -0.74,-0.82 0.53,-2.24 1.51,-2.83 3.27,-1.93 6.43,-4.4 10.55,-3.85 3.41,0.45 5.56,-1.27 7.77,-3.5 1.73,-1.74 1.48,-3.12 0.15,-4.72 -1.04,-1.27 -2.14,-2.51 -3.21,-3.77 z"
   id="path115" />&#10;		<path
   class="st99"
   d="m 197.01,180.98 c 10.57,-2.01 21.17,-3.75 32,-2.94 1.72,1.21 3.83,0.08 5.7,1.16 5.37,3.1 5.75,4.45 2.4,11.85 2.35,0.42 4.18,-0.77 6.09,-1.55 1.53,-0.63 3.02,-1.43 4.71,-1.5 1.64,-0.07 3.6,-0.32 4.26,1.64 0.61,1.82 -1.13,2.56 -2.36,3.32 -3.67,2.25 -7.27,4.63 -11.9,4.5 -2.41,-0.07 -4.45,1.27 -6.21,2.83 -2.88,2.55 -2.95,5.43 -0.22,8.14 1.77,1.75 3.87,3.13 5.73,4.77 1.93,1.71 3.5,3.63 2.32,6.49 -1.13,1.22 -2.24,0.4 -2.99,-0.32 -3.93,-3.75 -8.79,-6.37 -12.5,-10.36 -1.36,-0.97 -2.72,-1.94 -4.08,-2.91 2.15,-2.23 0.84,-3.92 -0.95,-5.4 -1.75,-1.45 -3.87,-1.63 -6.09,-1.71 -2.65,-0.1 -5.88,-0.33 -6.96,-2.93 -1.12,-2.69 2,-4.15 3.54,-5.96 1.45,-1.71 3.64,-2.93 3.86,-5.68 -9.4,-2.38 -18.18,0.25 -27.03,2.3 -1.74,0.4 -3.62,0.19 -5.44,0.26 4.9,-3.28 10.79,-3.88 16.12,-6 z"
   id="path116" />&#10;		<path
   class="st100"
   d="m 140.37,188.45 c 9.31,-10.12 19.04,-17.64 31.63,-20.92 0.98,-0.25 2.06,-0.76 2.64,0.35 0.77,1.45 -0.6,1.97 -1.5,2.67 -7.62,5.88 -17.43,7.9 -24.85,14.22 -1.83,1.57 -3.54,4.05 -7.92,3.68 z"
   id="path117" />&#10;		<path
   class="st101"
   d="m 275.93,183.06 c 1,-1.86 -0.69,-2.4 -1.68,-2.75 -6.84,-2.42 -13.65,-4.95 -21.04,-5.32 -6.86,-0.34 -13.87,1.36 -20.53,-2.32 -2.07,-1.14 -5.14,0.46 -7.46,1.78 -1.82,1.04 -3.56,1.57 -5.63,0.69 -1.11,-0.48 -3.07,0.09 -2.8,-1.89 0.18,-1.37 1.59,-1.97 3.02,-2.19 4.88,-0.73 9.48,-1.39 14.6,0.34 6.26,2.11 13.15,0.88 19.71,0.29 3.88,-0.35 4.52,-2.87 2,-5.94 -2.04,-2.49 -4.86,-3.98 -7.63,-5.48 -2.94,-1.6 -5.16,-3.84 -5.42,-7.26 -0.33,-4.35 -2.08,-7.89 -5.08,-10.93 0.97,0.14 1.94,0.35 2.91,0.41 4.47,0.31 6.84,1.58 5.29,7.01 -0.99,3.45 -1.02,7.79 3.79,9.55 5.75,0.22 11.1,2.12 14.51,6.63 4.39,5.83 9.91,9.08 16.81,10.69 2.9,0.68 5.7,1.83 8.54,2.76 4.3,1.69 8.88,2.69 12.96,4.97 4.26,2.38 4.7,3.54 2.44,7.78 -0.7,1.32 -1.35,2.32 0.37,3.22 2.24,1.84 5.27,2.89 6.15,6.1 -1.93,6.14 -4.65,7.05 -9.24,3.09 -0.84,-0.86 -1.51,-1.86 -2.13,-2.89 -1.28,-2.44 -3.29,-4.22 -5.32,-6 -4.73,-3.71 -9.86,-6.69 -15.38,-9.06 -1.55,-0.66 -3.75,-0.77 -3.76,-3.28 z"
   id="path118" />&#10;		<path
   class="st102"
   d="m 289.99,180.06 c -7.21,-2.15 -15.73,-2.3 -20.95,-7.89 -5.56,-5.97 -11.37,-10.67 -19.06,-13.12 0.17,-1.74 1.45,-2.5 2.74,-1.83 4.76,2.5 10.15,2.23 15.12,3.74 -0.42,4.76 2.49,7.33 6.26,9.12 5.66,2.68 11.42,5.16 17.13,7.72 -0.04,0.96 -0.36,1.76 -1.24,2.26 z"
   id="path119" />&#10;		<path
   class="st103"
   d="m 293.86,155.27 c 2.52,2.55 1.59,5.09 -0.27,7.37 -1.85,2.28 -4.44,2.93 -7.13,1.72 -2.68,-1.21 -5.19,-2.78 -7.78,-4.19 0.83,-0.05 1.83,-0.42 2.46,-0.09 6.08,3.13 9.48,-0.59 12.72,-4.81 z"
   id="path120" />&#10;		<path
   class="st5"
   d="m 268.08,156.76 c 3.96,-1.5 8.06,-0.41 12.09,-0.66 -3.95,1.74 -8.05,0.63 -12.09,0.66 z"
   id="path121" />&#10;		<path
   class="st104"
   d="m 410.99,228.34 c -1.55,13.77 -1.96,27.35 -5.48,40.5 -0.21,0.8 -0.4,1.6 -0.54,2.41 -0.24,1.4 0.52,3.63 -1.28,3.87 -2.32,0.32 -2.14,-2.4 -2.3,-3.67 -0.47,-3.6 -0.78,-7.32 -0.36,-10.91 1.13,-9.66 0.99,-19.45 2.87,-29.03 0.28,-1.44 0.82,-2.86 1.42,-4.2 0.74,-1.66 1.52,-3.59 3.87,-3.14 2.81,0.53 1.19,2.99 1.8,4.17 z"
   id="path122" />&#10;		<path
   class="st105"
   d="m 317.95,317.86 c 4.87,-2.13 10.37,-2.64 14.85,-5.78 3.58,1.03 6.32,-1.24 8.98,-2.77 17.14,-9.86 27.7,-24.88 33.2,-43.61 1.91,-6.49 3.34,-13.12 4.99,-19.68 0.73,-1.43 1.1,-3.47 3.29,-3.05 2.13,0.41 1.96,2.47 2.05,4.04 0.19,3.48 0.42,7.01 -0.34,10.44 -0.4,1.81 -0.33,4.14 -2.98,4.58 -0.67,-2.7 -1.94,-2.03 -2.72,-0.24 -1.06,2.42 -1.68,5.03 -2.52,7.54 -6.09,18.35 -16.81,33.26 -32.9,44.15 -3.03,2.05 -6.29,3.63 -9.86,4.52 -1.1,-1.3 -2.47,-0.78 -3.61,-0.29 -6.02,2.6 -12.91,2.34 -18.67,5.77 -0.72,0.43 -1.59,0.24 -2.38,-0.11 -1.24,-0.98 -1.33,-2.17 -0.67,-3.5 2.62,-2.89 6.45,-0.17 9.29,-2.01 z"
   id="path123" />&#10;		<path
   class="st106"
   d="m 381.98,262.02 c 3.05,-5.32 1.83,-11.15 1.88,-16.79 0.02,-2.13 -0.69,-2.08 -3.9,0.79 -0.51,-4.07 0.80404,-9.07011 1.02404,-13.08011 1.73,-0.55 0.046,-2.86989 2.51596,-2.34989 1.92,0.4 2.68,2.38 2.43,4.37 -0.43,3.36 1.67,5.97 2.5,8.95 1.35,4.82 1.62,9.59 0.56,14.53 -1.26,5.88 -1.52,11.98 -4.04,17.57 0.43,-2.94 -1.09,-5.06 -2.98,-7.02 -0.82,-1.65 -0.73,-3.32 -0.05,-4.99 0.03,-0.67 0.04,-1.33 0.06,-1.98 z"
   id="path124"
   sodipodi:nodetypes="cccccccccccc" />&#10;		<path
   class="st107"
   d="m 247.99,378.94 c -3.94,-0.88 -8.51,2.03 -11.94,-1.96 4.27,-3.37 9.56,-2.12 14.34,-2.99 21.2,-3.83 37.99,-14.83 51.72,-31 1.61,-1.89 3.13,-3.86 4.77,-5.72 0.75,-0.86 1.91,-2.47 3.15,-0.28 -1.35,2.32 -2.71,4.65 -4.06,6.97 -6.32,8.4 -13.42,16.01 -22.37,21.66 -10.25,6.47 -22.06,8.84 -33.42,12.37 -0.75,0.23 -1.46,0.62 -2.19,0.95 z"
   id="path125" />&#10;		<path
   class="st108"
   d="m 310.03,336.99 c -3.79,0.43 -4.61,4.11 -6.52,6.36 -16,18.81 -35.49,30.89 -60.62,32.65 -2.29,0.16 -4.56,0.64 -6.84,0.98 -0.36,-0.01 -0.71,-0.03 -1.07,-0.04 1.15,-2 0.48602,-4.3 0.97602,-6.44 3.47,-0.83 7.30398,0.09 10.72398,0.29 17.19,0.98 30.71,-6.63 42.86,-17.69 8.13,-7.4 15.08,-15.78 20.82,-25.17 1.86,-0.67 3.73,-1.13 5.58,0.03 -0.45,3.99 -2.58,6.9 -5.91,9.03 z"
   id="path126"
   sodipodi:nodetypes="ccccccccccc" />&#10;		<path
   class="st109"
   d="m 315.95,327.95 c -1.64,0.21 -3.27,1.42 -4.92,0.04 -1.43,-1.36 -1.67,-3.03 -1.23,-4.87 6.82,-4.49 15.23,-4.11 22.48,-7.32 3.1,-1.38 2.51,0.39 1.71,2.19 -4.23,1.45 -8.41,3.05 -12.69,4.3 -3.04,0.88 -5.02,2.41 -5.35,5.66 z"
   id="path127" />&#10;		<path
   class="st2"
   d="m 380.95,275.99 c -1.35,5.38 -1.95,10.97 -4.5,16.02 -0.83,1.65 -1.74,3.18 -3.52,3.97 2.34,-6.66 4.67,-13.33 7.01,-19.99 0.34,-0.44 0.68,-0.46 1.01,0 z"
   id="path128" />&#10;		<path
   class="st105"
   d="m 380.95,275.99 c -0.33,0 -0.67,0 -1,0 -0.08,-4.12 0.13,-8.2 1.98,-12 0.02,1.66 0.03,3.32 0.05,4.99 -0.34,2.33 -0.69,4.67 -1.03,7.01 z"
   id="path129" />&#10;		&#10;		<path
   class="st110"
   d="m 289.99,180.06 c 0.01,-0.97 0.34,-1.77 1.25,-2.25 7.33,1.86 14.35,4.52 21.06,8 0.4,3.04 3.35,2.02 5.01,3.05 1.85,1.15 4.57,1.39 3.34,4.65 -1.15,0.64 -2.36,0.61 -3.59,0.39 -3.44,-0.89 -6.93,-0.7 -10.4,-0.35 -0.97,0.51 -1.09,1.56 -1.51,2.41 -3.18,-0.36 -3.96,-1.83 -1.5,-4.06 3.59,-3.24 2.42,-5.21 -1.41,-6.78 -4.09,-1.66 -8.17,-3.37 -12.25,-5.06 z"
   id="path131" />&#10;		<path
   class="st111"
   d="m 320.99,193.1 c -1.12,-2.84 -3.93,-3.01 -6.24,-4.03 -1.35,-0.6 -3.83,-0.53 -2.45,-3.25 7.9,2.64 15.43,6.33 23.56,8.35 0.39,0.2 0.79,0.4 1.18,0.59 1.6,-0.67 2.61,0.05 3.35,1.43 0.2,1.45 -0.48,2.19 -1.9,2.21 -1.81,0.03 -3.63,-0.05 -5.44,-0.17 -4.17,-1.38 -8.93,-1.34 -12.06,-5.13 z"
   id="path132" />&#10;		<path
   class="st112"
   d="m 332.89,197.05 c 2.29,-0.84 4.98,1.59 7.06,-0.87 0.53,-0.69 1.25,-0.82 2.06,-0.74 4.97,2.03 9.63,4.79 14.88,6.18 1.07,0.28 2.17,0.83 2.28,2.24 -0.88,1.2 -2.01,0.85 -3.14,0.52 6.37,1.79 11.63,5.44 16.35,9.92 1.52,1.44 3.28,3.07 1.62,5.56 -4.9,0.01 -5.8,-5.03 -9.02,-7.14 -0.53,-0.4 -0.47,-1.28 -1.21,-1.51 -4.54,-4.05 -10.44,-5.5 -15.68,-8.21 -4.37,0.22 -8.68,0.16 -12.29,-2.85 -1.09,-0.94 -2.99,-1.1 -2.91,-3.1 z"
   id="path133" />&#10;		<path
   class="st113"
   d="m 373.99,219.85 c -0.1,-4.08 -3.41,-5.75 -6.06,-7.79 -3.74,-2.88 -7.82,-5.29 -12.34,-7.2 1.17,-1.33 2.33,-0.61 3.35,-0.78 1.68,-0.24 3.27,0.07 4.79,0.8 0.08,0.21 0.24,0.32 0.46,0.34 1.41,1.58 3.39,1.61 5.26,2.09 2.06,0.53 4.08,1.35 5.97,2.32 2.36,1.21 4.71,2.69 4.67,5.82 -0.04,4.11 -3.94,3.1 -6.1,4.4 z"
   id="path134" />&#10;		<path
   class="st85"
   d="m 363.76,211.2 c 0.78,0.21 1.13,0.76 1.21,1.51 -0.01,15.55 0.01,31.09 -0.05,46.64 -0.01,1.92 0.59,4 -0.9,5.72 -0.09,-17.96 -0.17,-35.92 -0.26,-53.87 z"
   id="path135" />&#10;		<path
   class="st114"
   d="m 341.81,196.4 c -0.62,-0.08 -1.24,-0.15 -1.87,-0.23 -0.97,-0.47 -1.94,-0.95 -2.91,-1.42 -0.05,-16.52 8.23,-27.89 22.12,-35.81 1.57,-0.9 3.11,-1.86 4.66,-2.8 -0.01,1.66 -0.02,3.31 -0.02,4.97 -0.84,2.16 -2.67,3.34 -4.5,4.52 -9.91,6.38 -15.48,15.32 -16.12,27.19 -0.06,1.33 -0.05,2.72 -1.36,3.58 z"
   id="path136" />&#10;		<path
   class="st115"
   d="m 341.81,196.4 c -0.67,-16.74 8.23,-27.52 21.98,-35.28 -0.02,14.59 -0.04,29.17 -0.06,43.76 -1.71,0.42 -3.32,0.2 -4.79,-0.8 -5.57,-2.85 -11.92,-4 -17.13,-7.68 z"
   id="path137" />&#10;		<path
   class="st116"
   d="m 309.79,323.12 c 1.37,1.38 1.22,3.14 1.23,4.87 -11.77,20.78 -27.65,36.78 -51.4,43.15 -7.74,2.08 -15.77,1.3 -23.64,-0.16 -2.65,0.65 -5.33,0.5 -8.01,0.24 -0.02,-0.19 -0.05,-0.37 -0.07,-0.56 -7.15,-0.89 -12.29,-5.59 -17.55,-9.74 -11.56,-9.12 -19.41,-20.73 -22,-35.49 -0.36,-2.04 -1.23,-4.28 1.07,-5.88 3.21,-0.31 6.45,0.36 9.64,-0.38 22.98,-2.69 39.4,-14.79 50.32,-35.56 7.62,16.06 20.04,26.36 36,32.29 7.52,2.79 15.32,5.65 23.66,2.93 0.27,0.27 0.34,0.53 0.23,0.78 -0.11,0.24 -0.22,0.36 -0.32,0.36 -0.14,1.15 -0.27,2.31 0.84,3.15 z"
   id="path138" />&#10;		<path
   class="st117"
   d="m 291.03,289.88 c -3.01,-3.06 -7.1,-4.79 -9.86,-8.18 -3.75,-4.59 -6.58,-9.56 -7.35,-15.54 -0.46,-3.76 -0.56,-7.53 0.05,-11.29 2.64,-13.93 12.3,-23.21 27,-25.95 11.68,-0.53 23.35,-0.89 35.02,0.18 l 0.18,-0.09 c 1.29,10.71 1.76,21.46 1.25,32.23 -0.97,20.38 -17.33,34.25 -37.63,32.05 -3.16,-0.35 -6.2,-1.19 -8.66,-3.41 z"
   id="path139" />&#10;		<path
   class="st118"
   d="m 188.77,320.14 c 2.49,22.4 15.33,37.36 34.38,47.86 1.59,0.88 3.17,1.77 4.75,2.65 -1.24,0.92 -2.22,2.04 -1.88,3.69 0.82,4 -1.43,4.68 -4.69,4.7 -4.26,0.03 -8.44,-0.2 -12.36,-2.08 -2.26,-0.55 -4.07,-1.8 -5.56,-3.54 -1.39,-1.15 -2.82,-1.68 -4.4,-0.36 -1.15,2.68 1.32,2.76 2.6,3.68 1.41,1.02 3.93,1.44 2.19,4.13 -0.25,0.02 -0.49,0.07 -0.73,0.15 -4.04,0.66 -8.07,0.68 -12.11,-0.01 -6.67,-0.82 -12.43,-3.32 -16.47,-8.96 -2.38,-3.32 -5.86,-3.3 -9.39,-3.14 -7.08,0.32 -13.85,-0.46 -19.43,-5.46 7.95,-4.2 13.61,-10.24 15.49,-19.31 0.88,-6.25 0.13,-12.54 0.4,-18.81 0.08,-1.8 -0.37,-3.64 0.39,-5.4 l 0.11,0.07 c 8.9,-0.76 17.81,-1.03 26.71,0.14 z"
   id="path140" />&#10;		<path
   class="st119"
   d="m 161.88,256.95 c 1.11,-9.64 6.04,-16.94 13.64,-22.75 11.61,-8.87 33.05,-6.65 42.28,5.65 -0.33,2.84 -2.42,4.64 -4.03,6.69 -10.08,12.85 -19.42,26.07 -22.83,42.5 -0.38,1.83 -1.25,3.44 -3.29,4.03 -8.65,0.42 -17.3,0.99 -25.84,-1.12 -0.39,-11.67 -0.52,-23.33 0.07,-35 z"
   id="path141" />&#10;		<path
   class="st120"
   d="m 275.93,183.06 c 5.79,3.37 12.33,5.38 17.62,9.68 0.89,0.72 1.98,1.18 2.43,2.34 -0.86,2.06 -2.85,2.07 -4.58,2.42 -17.85,3.54 -34.13,10.41 -48.04,22.38 -1,0.86 -2.04,1.75 -3.54,1.31 -0.28,-0.05 -0.56,-0.11 -0.83,-0.17 -0.34,-0.2 -0.46,-0.4 -0.35,-0.6 0.11,-0.2 0.22,-0.31 0.34,-0.31 0.99,-5.51 -4,-6.8 -6.9,-9.37 -2.59,-2.3 -5.29,-4.19 -3.75,-8.16 1.54,-3.98 5.03,-6.45 8.77,-6.33 5.97,0.18 9.78,-3.52 14.88,-5.89 -2.18,-2.08 -4.19,-1.47 -6.12,-0.71 -1.55,0.6 -2.95,1.62 -4.53,2.08 -2.15,0.63 -4.86,2.62 -6.51,0.65 -1.49,-1.78 1.67,-3.13 2.54,-4.8 1.74,-3.33 -0.2,-6.86 -5.2,-8.47 -1.06,-0.34 -2.37,0.08 -3.15,-1.08 15.88,-0.49 31.67,-0.23 46.92,5.03 z"
   id="path142" />&#10;		<path
   class="st121"
   d="m 188.99,291.82 c 3.73,-20.58 15.72,-36.58 28.81,-51.97 8.26,9.82 10.69,20.59 5.35,32.65 -0.59,1.34 -0.86,2.82 -1.27,4.23 -1.31,5.68 -5.77,8.68 -10.17,11.57 -4.93,3.24 -10.51,4.71 -16.4,5.02 -2.18,-0.18 -4.59,0.56 -6.32,-1.5 z"
   id="path143" />&#10;		<path
   class="st122"
   d="m 238.98,220.12 c 0.02,0.3 0.02,0.61 0.01,0.91 -7.06,-0.8 -12.68,-5.42 -19.48,-7.11 -20.45,-5.07 -39.73,-3.39 -57.29,9.04 -11.12,7.87 -16.97,19.22 -20.16,32.14 -5.35,21.72 -3.76,43.87 -4,65.91 -0.13,12.35 -0.02,24.71 -0.33,37.06 -0.06,2.23 -0.49,5.14 -3.62,5.91 -0.01,-33.77 -0.22,-67.55 0.14,-101.32 0.08,-7.22 3.6,-14.07 6.86,-20.44 12.16,-23.73 32.56,-34.41 58.57,-35.07 6.39,-0.16 12.84,1.14 19.04,3 2.12,0.64 3.87,0.74 5.31,-1.16 5.85,2.55 10.17,7.15 14.95,11.13 z"
   id="path144" />&#10;		<path
   class="st123"
   d="m 239.82,221.2 c 15.07,-13.71 32.94,-21.54 52.81,-25.23 1.14,-0.21 2.24,-0.58 3.36,-0.88 2.37,1.35 4.52,2.91 5.38,5.69 -1.83,2.25 -4.59,1.69 -6.92,2.08 -18.77,3.18 -32.77,13.06 -42.2,29.53 -2.01,3.9 -2.01,3.9 -4.2,2.53 -1.55,-5.3 -5.4,-9.2 -8.23,-13.72 z"
   id="path145" />&#10;		<path
   class="st124"
   d="m 291.03,289.88 c 6.4,1.6 12.81,3.13 19.47,1.77 14.38,-2.94 24.9,-14.45 25.44,-30.74 0.35,-10.62 0.11,-21.27 0.13,-31.9 2.94,14.02 5.9,28.13 2.51,42.41 -4.48,18.91 -24.64,30.66 -43.54,23.37 -2.06,-0.8 -4.44,-1.84 -4.01,-4.91 z"
   id="path146" />&#10;		<path
   class="st125"
   d="m 248.04,234.91 c 3.3,1.6 1.35,-2.83 3.25,-2.83 6.52,-3.11 11.33,-8.51 17.05,-12.7 10.33,-7.57 21.73,-12.52 34.29,-14.89 1.5,1.82 4.65,2.3 4.44,5.5 -5.7,1.67 -11.76,1.3 -17.4,3.59 -11.83,4.8 -21.6,12.14 -29.22,22.37 -0.3,0.4 -0.69,0.75 -0.92,1.18 -1.4,2.63 -3.41,5.2 -6.45,4.53 -3.03,-0.66 -4.67,-3.51 -5.04,-6.75 z"
   id="path147" />&#10;		<path
   class="st126"
   d="m 195.91,292.17 c 11.18,-0.89 19.57,-6.5 25.97,-15.43 1.26,1.85 1.21,3.66 -0.01,5.54 -6.47,9.94 -15.26,15.79 -27.46,15.71 -7.91,-0.05 -15.82,0.38 -23.6,-1.8 -2.06,-0.58 -3.69,-1.26 -4.81,-3.04 5.49,-1.44 11.08,-0.31 16.62,-0.62 4.42,-0.27 8.87,0.35 13.29,-0.36 z"
   id="path148" />&#10;		<path
   class="st127"
   d="m 336.28,199.23 c 3.57,2.38 7.87,2.49 11.8,3.75 -3.03,1.27 -4.89,4.09 -7.82,5.68 -2.89,1.57 -5.59,2.67 -8.81,2.35 -5.35,-0.54 -10.66,-1.77 -16.07,-0.09 -1.57,0.49 -3.17,-0.57 -4.46,-1.68 1.55,-2.49 0.7,-5.86 2.98,-8.08 4.91,-1.04 9.88,-0.27 14.82,-0.51 1.8,-0.09 3.65,0.27 5.36,-0.58 0.69,-0.39 1.43,-0.66 2.2,-0.84 z"
   id="path149" />&#10;		<path
   class="st128"
   d="m 313.12,202.11 c 1.3,3.01 1.09,5.55 -2.21,7.14 -1.23,0.55 -2.44,1.15 -3.85,0.75 -1.37,-1.65 -2.74,-3.3 -4.12,-4.95 -0.55,-0.65 -0.62,-1.34 -0.11,-2.05 4.01,4.22 5.74,3.76 8.22,-2.15 0.35,-0.21 0.71,-0.24 1.1,-0.11 0.52,0.32 0.88,0.75 0.97,1.37 z"
   id="path150" />&#10;		<path
   class="st129"
   d="m 188.77,320.14 c -8.9,-0.04 -17.81,-0.08 -26.71,-0.12 0.48,-1.21 1.56,-1.03 2.5,-1.02 11.51,0.04 23.01,0.11 34.51,0.17 -3.31,1.59 -6.91,0.23 -10.3,0.97 z"
   id="path151" />&#10;		<path
   class="st130"
   d="m 161.88,256.95 c 0.08,11.63 0.17,23.26 0.25,34.89 0.27,0.22 0.36,0.44 0.28,0.66 -0.09,0.22 -0.18,0.33 -0.27,0.33 -0.24,-0.21 -0.69,-0.42 -0.7,-0.64 -0.37,-11.75 -1.25,-23.51 0.44,-35.24 z"
   id="path152" />&#10;		<path
   class="st131"
   d="m 335.89,229.1 c -11.67,-0.06 -23.35,-0.12 -35.02,-0.18 2.76,-1.71 5.82,-0.81 8.73,-0.87 7.28,-0.14 14.57,-0.1 21.85,0.01 1.49,0.02 3.36,-0.93 4.44,1.04 z"
   id="path153" />&#10;		<path
   class="st132"
   d="m 162.15,292.83 c -0.05,-0.33 -0.05,-0.66 -0.01,-0.99 8.95,-0.01 17.9,-0.01 26.85,-0.02 2.31,0.12 4.62,0.23 6.93,0.35 -6.13,1.68 -12.38,0.53 -18.57,0.8 -3.78,0.17 -7.56,0.12 -11.35,0.17 -1.29,-0.1 -2.57,-0.21 -3.85,-0.31 z"
   id="path154" />&#10;		<path
   class="st133"
   d="m 161.95,319.95 c -0.2,8.07 1.05,16.19 -0.79,24.2 0.23,-8.07 -1.08,-16.19 0.79,-24.2 z"
   id="path155" />&#10;		<path
   class="st134"
   d="m 273.87,254.87 c -0.02,3.76 -0.03,7.52 -0.05,11.29 -1.39,-3.77 -1.37,-7.53 0.05,-11.29 z"
   id="path156" />&#10;		<path
   class="st109"
   d="m 308.96,319.96 c 0.03,-0.38 0.06,-0.76 0.09,-1.13 2.79,-1.95 5.96,-0.41 8.9,-0.96 -2.57,2.51 -6.34,-0.1 -8.99,2.09 z"
   id="path157" />&#10;		<path
   class="st135"
   d="m 198.06,200.86 c -3.36,0 -6.72,0 -10.08,0 3.36,-1.36 6.72,-1.31 10.08,0 z"
   id="path158" />&#10;		<path
   class="st136"
   d="m 227.902,370.66454 c 2.62,-1.93 5.368,-1.02454 8.078,0.31546 3.3,2.6 2.11,4.44 -1,5.96 -5.76,1.57 -6.838,0.18454 -7.078,-6.27546 z"
   id="path159"
   sodipodi:nodetypes="cccc" />&#10;		<path
   class="st137"
   d="m 204.16,372.67 c 1.6,1.43 3.2,2.87 4.8,4.3 -1.81,1.18 -2.59,3.74 -5.16,3.91 0.29,-2.56 -1.84,-2.57 -3.38,-3.32 -2.45,-1.19 -4.71,-2.61 -2.48,-5.85 1.81,2.07 3.86,2.56 6.22,0.96 z"
   id="path160" />&#10;		<path
   class="st138"
   d="m 190.97,381.02 c 4.04,0 8.07,0.01 12.11,0.01 -4.04,1.5 -8.07,1.42 -12.11,-0.01 z"
   id="path161" />&#10;		<path
   class="st139"
   d="m 302.83,202.99 c 0.04,0.68 0.08,1.37 0.11,2.05 -17.42,4.48 -32.95,12.42 -45.71,25.3 -1.78,1.8 -3.83,1.66 -5.95,1.75 8.84,-16.81 22.91,-26.47 41.32,-30.14 2.88,-0.57 5.83,-0.79 8.76,-1.17 0.5,0.73 0.98,1.47 1.47,2.21 z"
   id="path162" />&#10;		<path
   class="st140"
   d="m 312.35,201.21 c -0.43,-0.12 -0.87,-0.25 -1.3,-0.37 -1.97,-1.62 -3.94,-3.24 -5.91,-4.87 -0.04,-1.01 -1.84,-1.89 -0.23,-3.02 4.04,-0.72 8.09,-0.61 12.14,-0.06 1.31,0.07 2.61,0.13 3.92,0.2 3.97,1.32 7.93,2.63 11.9,3.95 1.13,0.73 2.26,1.45 3.39,2.18 -0.13,0.56 -0.25,1.13 -0.38,1.69 -7.82,1.13 -15.67,0.6 -23.53,0.3 z"
   id="path163" />&#10;		<path
   class="st141"
   d="m 317.07,192.9 c -4.05,0.02 -8.09,0.04 -12.14,0.06 4.03,-1.55 8.08,-1.43 12.14,-0.06 z"
   id="path164" />&#10;		<path
   class="st142"
   d="m 211.08,353.82 c -2.11,-0.06 -3.02,-1.08 -3.07,-2.82 -0.04,-1.62 1.12,-2.46 2.49,-2.64 1.74,-0.22 2.93,0.92 3.09,2.54 0.17,1.78 -1.22,2.54 -2.51,2.92 z"
   id="path165" />&#10;		<path
   class="st143"
   d="m 242.83,363.18 c 1.13,-0.03 1.95,0.54 2.14,1.59 0.24,1.33 -0.48,2.19 -1.85,2.32 -1.1,0.1 -1.98,-0.41 -2.16,-1.52 -0.22,-1.35 0.6,-2.1 1.87,-2.39 z"
   id="path166" />&#10;		<path
   class="st144"
   d="m 204.16,372.67 c -3.36,4.21 -4.15,4.09 -6.22,-0.95 2.27,-0.94 4.54,-1.87 6.22,0.95 z"
   id="path167" />&#10;		<path
   class="st145"
   d="m 189.8,340.85 c 0.03,0.96 -0.56,1.58 -1.37,1.73 -1.1,0.21 -1.88,-0.42 -2.02,-1.54 -0.12,-0.94 0.55,-1.6 1.34,-1.76 1.1,-0.21 1.79,0.47 2.05,1.57 z"
   id="path168" />&#10;		<path
   class="st146"
   d="m 312.35,201.21 c 7.85,-0.1 15.7,-0.19 23.55,-0.29 -2.2,2.23 -4.96,0.98 -7.44,1.08 -5.1,0.22 -10.22,0.09 -15.33,0.1 -0.26,-0.29 -0.52,-0.59 -0.78,-0.89 z"
   id="path169" />&#10;	</g>&#10;</g>&#10;</svg>
